STARTFONT 2.1
FONT -FontForge-Crete Round-Book-R-Normal--32-310-75-75-P-174-ISO10646-1
SIZE 31 75 75
FONTBOUNDINGBOX 37 41 -4 -9
COMMENT "Generated by fontforge, http://fontforge.sourceforge.net"
COMMENT "Copyright (c) 2011, TypeTogether (www.type-together.com), with Reserved Font Names "Crete" and "Crete Round""
STARTPROPERTIES 40
FOUNDRY "FontForge"
FAMILY_NAME "Crete Round"
WEIGHT_NAME "Book"
SLANT "R"
SETWIDTH_NAME "Normal"
ADD_STYLE_NAME ""
PIXEL_SIZE 32
POINT_SIZE 310
RESOLUTION_X 75
RESOLUTION_Y 75
SPACING "P"
AVERAGE_WIDTH 174
CHARSET_REGISTRY "ISO10646"
CHARSET_ENCODING "1"
FONTNAME_REGISTRY ""
CHARSET_COLLECTIONS "ISO8859-2 ISO8859-9 ISO8859-4 ISO10646-1"
FONT_NAME "CreteRound-Regular"
FACE_NAME "Crete Round"
COPYRIGHT "Copyright (c) 2011, TypeTogether (www.type-together.com), with Reserved Font Names "Crete" and "Crete Round""
FONT_VERSION "1.001"
FONT_ASCENT 26
FONT_DESCENT 6
UNDERLINE_POSITION -3
UNDERLINE_THICKNESS 2
X_HEIGHT 15
CAP_HEIGHT 21
DEFAULT_CHAR 1
RAW_ASCENT 800
RAW_DESCENT 200
NORM_SPACE 6
RELATIVE_WEIGHT 40
RELATIVE_SETWIDTH 50
SUPERSCRIPT_X 0
SUPERSCRIPT_Y 15
SUPERSCRIPT_SIZE 20
SUBSCRIPT_X 0
SUBSCRIPT_Y 4
SUBSCRIPT_SIZE 20
AVG_LOWERCASE_WIDTH 165
AVG_UPPERCASE_WIDTH 205
ENDPROPERTIES
CHARS 398
STARTCHAR .null.dup1
ENCODING 0
SWIDTH 0 0
DWIDTH 0 0
BBX 1 1 0 0
BITMAP
00
ENDCHAR
STARTCHAR CR
ENCODING 13
SWIDTH 200 0
DWIDTH 6 0
BBX 1 1 0 0
BITMAP
00
ENDCHAR
STARTCHAR space
ENCODING 32
SWIDTH 200 0
DWIDTH 6 0
BBX 1 1 0 0
BITMAP
00
ENDCHAR
STARTCHAR exclam
ENCODING 33
SWIDTH 253 0
DWIDTH 8 0
BBX 4 23 2 -1
BITMAP
F0
F0
F0
F0
F0
F0
F0
F0
F0
70
60
60
60
60
60
60
60
00
00
F0
F0
F0
20
ENDCHAR
STARTCHAR quotedbl
ENCODING 34
SWIDTH 374 0
DWIDTH 12 0
BBX 8 7 2 15
BITMAP
E7
E7
E7
E7
E7
E7
E7
ENDCHAR
STARTCHAR numbersign
ENCODING 35
SWIDTH 563 0
DWIDTH 18 0
BBX 16 18 1 -1
BITMAP
0218
0210
0210
0610
0410
7FFF
0420
0420
0C20
0820
FFFE
7FFE
0840
0840
1840
1040
10C0
1080
ENDCHAR
STARTCHAR dollar
ENCODING 36
SWIDTH 431 0
DWIDTH 14 0
BBX 12 22 1 -3
BITMAP
0300
0300
0FC0
3FE0
7FE0
F2E0
F2E0
F200
FE00
7F00
7FC0
1FE0
07E0
04F0
E4F0
ECF0
ECE0
FFE0
FF80
0C00
0800
0800
ENDCHAR
STARTCHAR percent
ENCODING 37
SWIDTH 832 0
DWIDTH 27 0
BBX 24 22 1 -1
BITMAP
1F00C0
3F81C0
71C1C0
60C380
E0E380
E0E300
E0E700
E0C600
61CE00
7BCC00
3F9CFC
1E19FE
0039C7
003387
007383
006383
00E387
00C387
01C387
0181FE
0380FC
030010
ENDCHAR
STARTCHAR ampersand
ENCODING 38
SWIDTH 647 0
DWIDTH 21 0
BBX 16 23 3 -1
BITMAP
1FC0
3FE0
7DF0
F070
F070
E030
F000
F000
7800
3FFF
0FFF
3FFF
781C
F01C
E01C
E01C
E01C
E01C
F01C
F83C
7FFC
3FF8
0200
ENDCHAR
STARTCHAR quotesingle
ENCODING 39
SWIDTH 222 0
DWIDTH 7 0
BBX 3 7 2 15
BITMAP
E0
E0
E0
E0
E0
E0
E0
ENDCHAR
STARTCHAR parenleft
ENCODING 40
SWIDTH 336 0
DWIDTH 11 0
BBX 7 29 3 -5
BITMAP
3C
3C
7C
70
70
70
70
70
E0
E0
E0
E0
E0
E0
E0
E0
E0
E0
E0
E0
70
70
70
70
70
70
3E
3E
3E
ENDCHAR
STARTCHAR parenright
ENCODING 41
SWIDTH 336 0
DWIDTH 11 0
BBX 7 29 1 -5
BITMAP
F8
F8
F8
1C
1C
1C
1C
1C
1C
1C
0E
0E
0E
0E
0E
0E
0E
0E
1C
1C
1C
1C
1C
1C
38
38
F8
F8
F8
ENDCHAR
STARTCHAR asterisk
ENCODING 42
SWIDTH 486 0
DWIDTH 16 0
BBX 11 12 2 12
BITMAP
0400
0600
0600
E660
7FC0
3F80
1F00
3FC0
76E0
C620
0600
0600
ENDCHAR
STARTCHAR plus
ENCODING 43
SWIDTH 530 0
DWIDTH 17 0
BBX 15 15 1 2
BITMAP
0300
0380
0380
0380
0380
0380
7FFC
FFFE
7FFC
0380
0380
0380
0380
0380
0380
ENDCHAR
STARTCHAR comma
ENCODING 44
SWIDTH 292 0
DWIDTH 9 0
BBX 5 9 2 -5
BITMAP
70
F8
F8
78
70
70
60
C0
C0
ENDCHAR
STARTCHAR hyphen
ENCODING 45
SWIDTH 282 0
DWIDTH 9 0
BBX 7 3 1 7
BITMAP
FE
FE
FE
ENDCHAR
STARTCHAR period
ENCODING 46
SWIDTH 279 0
DWIDTH 9 0
BBX 4 5 2 -1
BITMAP
60
F0
F0
F0
60
ENDCHAR
STARTCHAR slash
ENCODING 47
SWIDTH 449 0
DWIDTH 14 0
BBX 12 27 1 -3
BITMAP
0030
0070
0060
0060
00E0
00C0
01C0
01C0
0180
0380
0380
0300
0700
0600
0600
0E00
0C00
1C00
1C00
1800
3800
3800
3000
7000
6000
6000
E000
ENDCHAR
STARTCHAR zero
ENCODING 48
SWIDTH 576 0
DWIDTH 18 0
BBX 16 17 1 0
BITMAP
07E0
1FF8
3FFC
7C1E
780F
700F
F00F
F007
F007
F007
F007
F00F
780F
781E
3E3E
1FFC
0FF0
ENDCHAR
STARTCHAR one
ENCODING 49
SWIDTH 339 0
DWIDTH 11 0
BBX 9 16 1 0
BITMAP
FC00
FC00
1C00
1C00
1C00
1C00
1C00
1C00
1C00
1C00
1C00
1C00
1C00
FF80
FF80
FF80
ENDCHAR
STARTCHAR two
ENCODING 50
SWIDTH 526 0
DWIDTH 17 0
BBX 14 19 1 -2
BITMAP
0FC0
3FF0
7FF0
7078
E078
E078
0078
0078
0070
00F0
01E0
07C0
0F0C
3E0C
7FFC
FFFC
FFFC
000C
000C
ENDCHAR
STARTCHAR three
ENCODING 51
SWIDTH 483 0
DWIDTH 15 0
BBX 13 22 1 -5
BITMAP
0FC0
3FE0
7FF0
7070
E078
E078
0078
0070
01E0
0FC0
0FC0
0FF0
0070
0078
0038
0038
E078
E078
F0F0
7FF0
3FC0
0400
ENDCHAR
STARTCHAR four
ENCODING 52
SWIDTH 524 0
DWIDTH 17 0
BBX 15 20 1 -4
BITMAP
00F0
01F0
03F0
03F0
07F0
06F0
0EF0
1CF0
18F0
38F0
70F0
60F0
E0F0
FFFE
FFFE
7FFE
00F0
00F0
00F0
00F0
ENDCHAR
STARTCHAR five
ENCODING 53
SWIDTH 475 0
DWIDTH 15 0
BBX 14 21 0 -5
BITMAP
1FFC
1FFC
1FF8
1C00
1800
3800
3800
3FE0
3FF8
3CF8
103C
003C
003C
003C
603C
F03C
7038
78F8
7FF0
1FE0
0200
ENDCHAR
STARTCHAR six
ENCODING 54
SWIDTH 546 0
DWIDTH 17 0
BBX 15 21 1 0
BITMAP
03F0
0FF8
1FFC
3C1C
381C
7800
7000
7080
77F8
FFFC
FC3C
F81E
F01E
F00E
700E
700E
701E
781C
3E7C
1FF8
0FF0
ENDCHAR
STARTCHAR seven
ENCODING 55
SWIDTH 461 0
DWIDTH 15 0
BBX 14 20 0 -4
BITMAP
FFFC
FFFC
FFFC
003C
0038
0078
0070
00F0
00E0
01E0
01E0
03C0
03C0
0780
0780
0F00
0F00
0E00
1E00
3C00
ENDCHAR
STARTCHAR eight
ENCODING 56
SWIDTH 534 0
DWIDTH 17 0
BBX 15 21 1 0
BITMAP
07E0
1FF0
3FF8
7838
783C
7838
7838
3C78
3FF0
1FC0
0FF0
1FF8
3C7C
783C
F01E
F01E
F01E
F01C
787C
7FF8
1FF0
ENDCHAR
STARTCHAR nine
ENCODING 57
SWIDTH 546 0
DWIDTH 17 0
BBX 15 22 1 -5
BITMAP
07E0
1FF0
3FF8
783C
701C
F01E
F01E
F01E
F01E
701E
783E
7FFE
3FFE
1FDE
001E
001C
701C
703C
78F8
3FF0
1FE0
0200
ENDCHAR
STARTCHAR colon
ENCODING 58
SWIDTH 279 0
DWIDTH 9 0
BBX 4 18 2 -1
BITMAP
60
F0
F0
F0
60
00
00
00
00
00
00
00
00
60
F0
F0
F0
60
ENDCHAR
STARTCHAR semicolon
ENCODING 59
SWIDTH 300 0
DWIDTH 10 0
BBX 5 22 2 -5
BITMAP
20
78
F8
F8
70
00
00
00
00
00
00
00
00
70
F8
F8
78
70
70
60
C0
C0
ENDCHAR
STARTCHAR less
ENCODING 60
SWIDTH 530 0
DWIDTH 17 0
BBX 13 14 2 1
BITMAP
0018
0078
03F0
0FC0
3E00
F800
E000
F800
3E00
0FC0
03F0
00F8
0018
0008
ENDCHAR
STARTCHAR equal
ENCODING 61
SWIDTH 530 0
DWIDTH 17 0
BBX 15 7 1 5
BITMAP
FFFE
FFFE
0000
0000
0000
FFFE
FFFE
ENDCHAR
STARTCHAR greater
ENCODING 62
SWIDTH 530 0
DWIDTH 17 0
BBX 13 14 2 1
BITMAP
C000
F000
7E00
1F80
03E0
00F8
0038
00F8
03E0
1F80
7E00
F800
C000
8000
ENDCHAR
STARTCHAR question
ENCODING 63
SWIDTH 465 0
DWIDTH 15 0
BBX 13 23 1 -1
BITMAP
1FC0
7FE0
78F0
F078
E078
6078
0078
0070
00F0
01E0
0FC0
0F80
0E00
0E00
0E00
0E00
0E00
0000
0000
0E00
1F00
1E00
0400
ENDCHAR
STARTCHAR at
ENCODING 64
SWIDTH 848 0
DWIDTH 27 0
BBX 25 24 1 -4
BITMAP
007F8000
01C0F000
06001800
0C000C00
180E0600
307F8300
20FFC300
60E1E100
60C1E180
4000E180
4003E180
403FE180
C0FEE180
41E0E180
41C0E180
41C0E100
61C1E300
61FFE200
20FEFE00
307C7800
18000000
0C000000
07000000
01FF0000
ENDCHAR
STARTCHAR A
ENCODING 65
SWIDTH 696 0
DWIDTH 22 0
BBX 22 22 0 0
BITMAP
007800
00F800
00FC00
00DC00
01DC00
01DE00
01CE00
038E00
038F00
038F00
070780
070780
070780
0FFFC0
0FFFC0
0E03C0
1C01E0
1C01E0
1C01E0
FE03FC
FF07FC
FF07FC
ENDCHAR
STARTCHAR B
ENCODING 66
SWIDTH 587 0
DWIDTH 19 0
BBX 17 22 1 0
BITMAP
FFE000
FFFC00
FFFE00
3C1E00
3C0F00
3C0F00
3C0E00
3C0E00
3C1C00
3FF800
3FF800
3FFE00
3C0F00
3C0780
3C0780
3C0780
3C0780
3C0780
3C0F00
7CFE00
FFFC00
FFF000
ENDCHAR
STARTCHAR C
ENCODING 67
SWIDTH 629 0
DWIDTH 20 0
BBX 18 22 1 0
BITMAP
03FE00
07FF80
1FFFC0
1E03C0
3C01C0
7801C0
780180
780000
700000
F00000
F00000
F00000
F00000
F00000
780000
780000
7801C0
3C01C0
3E01C0
1FCFC0
0FFFC0
03FF00
ENDCHAR
STARTCHAR D
ENCODING 68
SWIDTH 679 0
DWIDTH 22 0
BBX 19 22 1 0
BITMAP
7FF000
FFFE00
FFFF00
3C0F80
3C07C0
3C03C0
3C01E0
3C01E0
3C01E0
3C01E0
3C00E0
3C01E0
3C01E0
3C01E0
3C01E0
3C01E0
3C03C0
3C07C0
3C0F80
7CFF00
FFFC00
FFF000
ENDCHAR
STARTCHAR E
ENCODING 69
SWIDTH 555 0
DWIDTH 18 0
BBX 16 22 1 0
BITMAP
7FFE
FFFE
FFFE
3C06
3C06
3C06
3C00
3C00
3C18
3C18
3FF8
3FF8
3C18
3C18
3C00
3C00
3C00
3C07
3C07
7C07
FFFF
FFFF
ENDCHAR
STARTCHAR F
ENCODING 70
SWIDTH 540 0
DWIDTH 17 0
BBX 16 22 1 0
BITMAP
7FFE
FFFF
FFFF
3C07
3C07
3C06
3C00
3C18
3C1C
3FFC
3FFC
3FFC
3C1C
3C1C
3C00
3C00
3C00
3C00
3C00
7F80
FFC0
FFC0
ENDCHAR
STARTCHAR G
ENCODING 71
SWIDTH 695 0
DWIDTH 22 0
BBX 21 22 1 0
BITMAP
01FE00
07FF80
1FFFC0
1E03C0
3C01C0
7801C0
780180
780000
700000
F00000
F00000
F00000
F007F8
7007F8
7807F0
7801C0
7801C0
3C01C0
3E01C0
1FFFC0
0FFFC0
03FF00
ENDCHAR
STARTCHAR H
ENCODING 72
SWIDTH 743 0
DWIDTH 24 0
BBX 22 22 1 0
BITMAP
7F03F8
FF03FC
FF03F8
3C00E0
3C00E0
3C00E0
3C00E0
3C00E0
3C00E0
3FFFE0
3FFFE0
3FFFE0
3C00E0
3C00E0
3C00E0
3C00E0
3C00E0
3C00E0
3C00E0
7F03F8
FF03FC
FF03FC
ENDCHAR
STARTCHAR I
ENCODING 73
SWIDTH 328 0
DWIDTH 11 0
BBX 8 22 1 0
BITMAP
7F
FF
FF
3C
3C
3C
3C
3C
3C
3C
3C
3C
3C
3C
3C
3C
3C
3C
3C
7F
FF
FF
ENDCHAR
STARTCHAR J
ENCODING 74
SWIDTH 329 0
DWIDTH 11 0
BBX 12 30 -3 -8
BITMAP
07F0
0FF0
0FF0
03C0
03C0
03C0
03C0
03C0
03C0
03C0
03C0
03C0
03C0
03C0
03C0
03C0
03C0
03C0
03C0
03C0
03C0
03C0
03C0
03C0
03C0
03C0
47C0
7F80
FF00
3800
ENDCHAR
STARTCHAR K
ENCODING 75
SWIDTH 664 0
DWIDTH 21 0
BBX 19 22 1 0
BITMAP
7F0FE0
FF1FE0
FF0FE0
3C0700
3C0F00
3C1E00
3C3C00
3C3800
3C7000
3CE000
3FE000
3FE000
3CF000
3CF800
3C7800
3C3C00
3C1E00
3C1F00
3C0F00
7F07E0
FF07E0
FF03E0
ENDCHAR
STARTCHAR L
ENCODING 76
SWIDTH 525 0
DWIDTH 17 0
BBX 15 24 1 -2
BITMAP
7F80
FF80
FF80
3C00
3C00
3C00
3C00
3C00
3C00
3C00
3C00
3C00
3C00
3C00
3C00
3C00
3C00
3C06
3C06
7FFE
FFFE
FFFE
0006
0006
ENDCHAR
STARTCHAR M
ENCODING 77
SWIDTH 909 0
DWIDTH 29 0
BBX 27 22 1 0
BITMAP
7E0007E0
FE000FE0
FF000FE0
3F001F80
3F001F80
3F803F80
3B803F80
3BC03F80
3BC07780
39C07780
39E0E780
39E0E780
38F0E780
38F1C780
3871C780
38798780
387B8780
383B8780
383F0780
7E1F1FC0
FF1E1FE0
FF1E1FE0
ENDCHAR
STARTCHAR N
ENCODING 78
SWIDTH 743 0
DWIDTH 24 0
BBX 22 22 1 0
BITMAP
7C01FC
FE01FC
FE01FC
3F0070
3F8070
3F8070
3BC070
39E070
39E070
38F070
387870
387870
383C70
381E70
381E70
380F70
3807F0
3807F0
3803F0
7F01F0
FF01F0
FF00F0
ENDCHAR
STARTCHAR O
ENCODING 79
SWIDTH 692 0
DWIDTH 22 0
BBX 20 22 1 0
BITMAP
01FC00
07FF00
1FFF80
1E07C0
3C03E0
7801E0
7801E0
7001F0
7000F0
F000F0
F000F0
F000F0
F000F0
F000F0
7801E0
7801E0
7801E0
7C03C0
3E07C0
1FFF80
0FFF00
07FC00
ENDCHAR
STARTCHAR P
ENCODING 80
SWIDTH 565 0
DWIDTH 18 0
BBX 16 22 1 0
BITMAP
7FE0
FFFC
FFFE
3C1E
3C0F
3C0F
3C0F
3C0F
3C0F
3C1E
3C3E
3FFC
3FF0
3C00
3C00
3C00
3C00
3C00
3C00
7F80
FF80
FF80
ENDCHAR
STARTCHAR Q
ENCODING 81
SWIDTH 692 0
DWIDTH 22 0
BBX 20 27 1 -5
BITMAP
01FC00
07FF00
1FFF80
1E07C0
3C03E0
7801E0
7801E0
7001F0
7000F0
F000F0
F000F0
F000F0
F000F0
F000F0
7801E0
7801E0
7801E0
7C03C0
3E07C0
1FFF80
0FFF00
07FC00
003E00
001E00
000F00
000780
000180
ENDCHAR
STARTCHAR R
ENCODING 82
SWIDTH 616 0
DWIDTH 20 0
BBX 18 22 1 0
BITMAP
7FE000
FFFC00
FFFE00
3C1E00
3C0F00
3C0F00
3C0F00
3C0F00
3C0E00
3C1E00
3FFC00
3FF800
3FF000
3C7800
3C7800
3C3C00
3C3C00
3C1E00
3C1E00
7F0FC0
FF8FC0
FF87C0
ENDCHAR
STARTCHAR S
ENCODING 83
SWIDTH 517 0
DWIDTH 17 0
BBX 13 22 2 0
BITMAP
1FF0
3FF0
7FF0
F030
E030
E070
E000
F000
FC00
7F00
3FC0
0FF0
03F0
00F8
0078
C038
C038
C038
C078
F9F0
FFE0
FFC0
ENDCHAR
STARTCHAR T
ENCODING 84
SWIDTH 593 0
DWIDTH 19 0
BBX 17 22 1 0
BITMAP
FFFF80
FFFF80
FFFF80
C1C180
C1C380
E1C180
01C000
01C000
01C000
01C000
01C000
01C000
01C000
01C000
01C000
01C000
01C000
01C000
01C000
0FF800
0FF800
0FF800
ENDCHAR
STARTCHAR U
ENCODING 85
SWIDTH 713 0
DWIDTH 23 0
BBX 21 22 1 0
BITMAP
FE03F8
FF03F8
FF03F8
3C00E0
3C00E0
3C00E0
3C00E0
3C00E0
3C00E0
3C00E0
3C00E0
3C00E0
3C00E0
3C00E0
3C00E0
3C00E0
3C01E0
3C01C0
1E03C0
1FFF80
0FFF00
07FE00
ENDCHAR
STARTCHAR V
ENCODING 86
SWIDTH 684 0
DWIDTH 22 0
BBX 22 22 0 0
BITMAP
FF83F8
FF83FC
FF83FC
1E00E0
1E00E0
1F00E0
0F01C0
0F01C0
0F01C0
078380
078380
078380
03C700
03C700
03C600
01EE00
01EE00
01EC00
00FC00
00FC00
00F800
007800
ENDCHAR
STARTCHAR W
ENCODING 87
SWIDTH 997 0
DWIDTH 32 0
BBX 32 22 0 0
BITMAP
FF81C0FF
FF83E0FF
FF83E0FF
3E03E038
1E07E038
1E07F038
1E07F038
1E06F070
0F0E7070
0F0E7870
0F0E7870
0F1C38E0
079C38E0
079C3CE0
079C3CE0
07B81DC0
03F81FC0
03F81FC0
03F00F80
03F00F80
01F00F80
01F00F80
ENDCHAR
STARTCHAR X
ENCODING 88
SWIDTH 677 0
DWIDTH 22 0
BBX 21 22 0 0
BITMAP
7F87F0
FF87F8
FF87F8
1E01C0
0F0380
0F8700
078700
03CE00
01FC00
01F800
00F800
00F800
00FC00
01FE00
039E00
078F00
070F80
0E0780
1C03C0
3F01F8
FF0FF8
FF0FF8
ENDCHAR
STARTCHAR Y
ENCODING 89
SWIDTH 664 0
DWIDTH 21 0
BBX 21 22 0 0
BITMAP
7F87F8
FF87F8
FF87F8
1E01C0
1F01C0
0F0380
078380
078700
03C600
03EE00
01FC00
00FC00
00F800
007800
007800
007800
007800
007800
007800
007C00
01FE00
01FE00
ENDCHAR
STARTCHAR Z
ENCODING 90
SWIDTH 588 0
DWIDTH 19 0
BBX 17 24 1 -2
BITMAP
7FFF00
7FFF80
7FFF80
600F00
601E00
603E00
007C00
007800
00F000
01F000
01E000
03C000
078000
0F8000
0F0000
1E0000
3E0000
7C0380
780380
F00380
FFFF80
FFFF80
000380
000380
ENDCHAR
STARTCHAR bracketleft
ENCODING 91
SWIDTH 337 0
DWIDTH 11 0
BBX 6 29 4 -5
BITMAP
FC
FC
FC
E0
E0
E0
E0
E0
E0
E0
E0
E0
E0
E0
E0
E0
E0
E0
E0
E0
E0
E0
E0
E0
E0
E0
FC
FC
FC
ENDCHAR
STARTCHAR backslash
ENCODING 92
SWIDTH 434 0
DWIDTH 14 0
BBX 12 27 1 -3
BITMAP
C000
E000
E000
6000
7000
3000
3000
3800
1800
1C00
1C00
0C00
0E00
0E00
0600
0700
0300
0300
0380
0180
01C0
01C0
00C0
00E0
00E0
0060
0070
ENDCHAR
STARTCHAR bracketright
ENCODING 93
SWIDTH 337 0
DWIDTH 11 0
BBX 6 29 1 -5
BITMAP
FC
FC
FC
1C
1C
1C
1C
1C
1C
1C
1C
1C
1C
1C
1C
1C
1C
1C
1C
1C
1C
1C
1C
1C
1C
1C
FC
FC
FC
ENDCHAR
STARTCHAR asciicircum
ENCODING 94
SWIDTH 584 0
DWIDTH 19 0
BBX 14 12 2 10
BITMAP
0700
0780
0780
0FC0
0DC0
1CE0
18E0
3870
3870
7038
7038
E01C
ENDCHAR
STARTCHAR underscore
ENCODING 95
SWIDTH 500 0
DWIDTH 16 0
BBX 16 2 0 -5
BITMAP
FFFF
FFFF
ENDCHAR
STARTCHAR grave
ENCODING 96
SWIDTH 500 0
DWIDTH 16 0
BBX 5 4 6 19
BITMAP
F0
70
38
38
ENDCHAR
STARTCHAR a
ENCODING 97
SWIDTH 524 0
DWIDTH 17 0
BBX 15 16 1 0
BITMAP
0FE0
3FF0
78F0
7078
7078
0078
0078
1FF8
7FF8
7838
F038
F038
F078
F8FC
7FBE
3F3E
ENDCHAR
STARTCHAR b
ENCODING 98
SWIDTH 584 0
DWIDTH 19 0
BBX 17 24 1 0
BITMAP
F80000
F80000
F80000
380000
380000
380000
380000
380000
38F800
3BFE00
3FFE00
3E0F00
3C0F00
3C0700
380700
380780
380780
380700
380700
380F00
3C0F00
FF3E00
FFFC00
FBF800
ENDCHAR
STARTCHAR c
ENCODING 99
SWIDTH 468 0
DWIDTH 15 0
BBX 13 16 1 0
BITMAP
0FE0
1FF0
3FF8
7838
7038
F018
F000
F000
F000
F000
F000
7000
7800
7E30
3FF8
0FF0
ENDCHAR
STARTCHAR d
ENCODING 100
SWIDTH 583 0
DWIDTH 19 0
BBX 17 24 1 0
BITMAP
007E00
007E00
007E00
001E00
001E00
001E00
001E00
001E00
0FDE00
1FFE00
3FFE00
783E00
701E00
F01E00
F01E00
F01E00
F01E00
F01E00
F01E00
F01E00
783E00
7EFF00
3FEF80
1FCF80
ENDCHAR
STARTCHAR e
ENCODING 101
SWIDTH 489 0
DWIDTH 16 0
BBX 14 16 1 0
BITMAP
0FE0
1FF0
3FF8
7838
7038
F03C
F03C
FFFC
FFFC
F000
F000
7000
7800
7E38
3FF8
1FF0
ENDCHAR
STARTCHAR f
ENCODING 102
SWIDTH 358 0
DWIDTH 11 0
BBX 11 24 1 0
BITMAP
0FE0
1FE0
3E60
3C00
3C00
3C00
3C00
3C00
FFC0
FFC0
FFC0
3C00
3C00
3C00
3C00
3C00
3C00
3C00
3C00
3C00
3C00
FF80
FFC0
FFC0
ENDCHAR
STARTCHAR g
ENCODING 103
SWIDTH 570 0
DWIDTH 18 0
BBX 17 24 1 -8
BITMAP
0FCF80
3FEF80
3FFF80
783E00
701E00
F01E00
F01E00
F01E00
F01E00
F01E00
F01E00
F01E00
783E00
7EFE00
3FFE00
1FDE00
001E00
001E00
001C00
003C00
307C00
3FF800
3FF000
078000
ENDCHAR
STARTCHAR h
ENCODING 104
SWIDTH 599 0
DWIDTH 19 0
BBX 18 24 1 0
BITMAP
F80000
F80000
F80000
380000
380000
380000
380000
380000
38F800
3BFC00
3FFE00
3E1E00
3C1E00
3C0E00
380E00
380E00
380E00
380E00
380E00
380E00
380E00
FE3F80
FF3FC0
FF3FC0
ENDCHAR
STARTCHAR i
ENCODING 105
SWIDTH 294 0
DWIDTH 9 0
BBX 8 23 1 0
BITMAP
10
78
7C
7C
38
00
00
F8
FC
FC
3C
3C
3C
3C
3C
3C
3C
3C
3C
3C
FF
FF
FF
ENDCHAR
STARTCHAR j
ENCODING 106
SWIDTH 289 0
DWIDTH 9 0
BBX 10 31 -3 -8
BITMAP
0100
0780
07C0
07C0
0380
0000
0000
0F80
0FC0
0FC0
03C0
03C0
03C0
03C0
03C0
03C0
03C0
03C0
03C0
03C0
03C0
03C0
03C0
03C0
03C0
03C0
0380
4F80
FF80
FF00
3800
ENDCHAR
STARTCHAR k
ENCODING 107
SWIDTH 566 0
DWIDTH 18 0
BBX 17 24 1 0
BITMAP
F80000
FC0000
FC0000
3C0000
3C0000
3C0000
3C0000
3C0000
3C0F00
3C1F00
3C3F00
3C7800
3CF000
3FE000
3FC000
3FE000
3DE000
3CF000
3CF800
3C7800
3C3C00
FE3F00
FF1F80
FF1F80
ENDCHAR
STARTCHAR l
ENCODING 108
SWIDTH 294 0
DWIDTH 9 0
BBX 8 24 1 0
BITMAP
F8
FC
FC
3C
3C
3C
3C
3C
3C
3C
3C
3C
3C
3C
3C
3C
3C
3C
3C
3C
3C
FF
FF
FF
ENDCHAR
STARTCHAR m
ENCODING 109
SWIDTH 893 0
DWIDTH 29 0
BBX 27 16 1 0
BITMAP
F9F87E00
FBFCFF00
FFFFFF00
3E1F8F80
3C1F0780
3C0E0780
3C0E0780
3C0E0780
3C0E0780
3C0E0780
3C0E0780
3C0E0780
3C0E0780
FF3F8FE0
FF3F9FE0
FF3F9FE0
ENDCHAR
STARTCHAR n
ENCODING 110
SWIDTH 604 0
DWIDTH 19 0
BBX 18 16 1 0
BITMAP
F8F800
FBFE00
FFFE00
3E1E00
3C0E00
3C0F00
3C0F00
3C0F00
3C0F00
3C0F00
3C0F00
3C0F00
3C0F00
FF3F80
FF3FC0
FF3FC0
ENDCHAR
STARTCHAR o
ENCODING 111
SWIDTH 532 0
DWIDTH 17 0
BBX 15 16 1 0
BITMAP
0FE0
1FF8
3EFC
783C
701C
F01E
F01E
F01E
F01E
F01E
F01E
F01C
783C
7C78
3FF0
1FE0
ENDCHAR
STARTCHAR p
ENCODING 112
SWIDTH 584 0
DWIDTH 19 0
BBX 17 23 1 -7
BITMAP
F9F800
FBFE00
FFFE00
3E0F00
3C0F00
3C0700
380780
380780
380780
380700
380700
380F00
3C0F00
3F3E00
3FFC00
3BF800
380000
380000
380000
380000
380000
FF8000
FF8000
ENDCHAR
STARTCHAR q
ENCODING 113
SWIDTH 575 0
DWIDTH 18 0
BBX 17 23 1 -7
BITMAP
0FCF80
1FEF80
3FFF80
783E00
701E00
F01E00
F01E00
F01E00
F01E00
F01E00
F01E00
F01E00
783E00
7EFE00
3FFE00
1FDE00
001E00
001E00
001E00
001E00
001E00
001F80
001F80
ENDCHAR
STARTCHAR r
ENCODING 114
SWIDTH 451 0
DWIDTH 14 0
BBX 12 16 1 0
BITMAP
F9F0
FBF0
FBF0
3E70
3C70
3C00
3C00
3C00
3C00
3C00
3C00
3C00
3C00
FF80
FFC0
FFC0
ENDCHAR
STARTCHAR s
ENCODING 115
SWIDTH 441 0
DWIDTH 14 0
BBX 11 16 2 0
BITMAP
1FC0
7FC0
F1C0
E0C0
E0C0
F000
FC00
7F80
3FC0
07E0
01E0
C0E0
E0E0
E1E0
FFC0
FF80
ENDCHAR
STARTCHAR t
ENCODING 116
SWIDTH 369 0
DWIDTH 12 0
BBX 11 21 0 0
BITMAP
1C00
1C00
1C00
1C00
1C00
7FC0
FFC0
7FC0
1C00
1C00
1C00
1C00
1C00
1C00
1C00
1C00
1C00
1E00
1E60
1FE0
0FE0
ENDCHAR
STARTCHAR u
ENCODING 117
SWIDTH 599 0
DWIDTH 19 0
BBX 17 16 1 0
BITMAP
F87E00
F87E00
F87E00
380E00
380E00
380E00
380E00
380E00
380E00
380E00
380E00
381E00
3C1E00
3FFF80
1FFF80
0FC780
ENDCHAR
STARTCHAR v
ENCODING 118
SWIDTH 519 0
DWIDTH 17 0
BBX 16 16 0 0
BITMAP
F83F
FC3F
FC3E
3C0E
1E0E
1E1C
1E1C
0E1C
0F38
0F38
0730
07F0
07F0
03E0
03E0
03E0
ENDCHAR
STARTCHAR w
ENCODING 119
SWIDTH 781 0
DWIDTH 25 0
BBX 24 16 0 0
BITMAP
F81E1F
FC1E1F
FC1F1F
3C1F07
1C3F06
1E3F8E
1E338E
1E738E
0E739C
0F63DC
0F61DC
07E1D8
07E1F8
07C1F8
07C0F0
03C0F0
ENDCHAR
STARTCHAR x
ENCODING 120
SWIDTH 553 0
DWIDTH 18 0
BBX 16 16 1 0
BITMAP
F87F
FC7F
FE7E
1E38
0F70
0FE0
07C0
03C0
03C0
07E0
0EE0
1EF0
1C78
FE7F
FE3F
FE3F
ENDCHAR
STARTCHAR y
ENCODING 121
SWIDTH 519 0
DWIDTH 17 0
BBX 16 24 0 -8
BITMAP
F83F
FC3F
FC3E
3C0E
1E0E
1E1C
1E1C
0E1C
0F38
0F38
0730
07F0
03F0
03E0
03E0
01C0
01C0
03C0
0380
0380
8700
FF00
FE00
3800
ENDCHAR
STARTCHAR z
ENCODING 122
SWIDTH 452 0
DWIDTH 14 0
BBX 13 16 1 0
BITMAP
7FF0
FFF0
FFF0
E0F0
61E0
03C0
07C0
0780
0F00
1E00
3C00
7C38
7838
F038
FFF0
FFF0
ENDCHAR
STARTCHAR braceleft
ENCODING 123
SWIDTH 328 0
DWIDTH 11 0
BBX 9 29 1 -5
BITMAP
3F80
1F80
1F80
1C00
1C00
1C00
1C00
1C00
1C00
1C00
1C00
1C00
1C00
FC00
FC00
1C00
1C00
1C00
1C00
1C00
1C00
1C00
1C00
1C00
1C00
1C00
1F80
1F80
3F80
ENDCHAR
STARTCHAR bar
ENCODING 124
SWIDTH 257 0
DWIDTH 8 0
BBX 2 27 3 -3
BITMAP
C0
C0
C0
C0
C0
C0
C0
C0
C0
C0
C0
C0
C0
C0
C0
C0
C0
C0
C0
C0
C0
C0
C0
C0
C0
C0
C0
ENDCHAR
STARTCHAR braceright
ENCODING 125
SWIDTH 330 0
DWIDTH 11 0
BBX 9 29 1 -5
BITMAP
FC00
FC00
FC00
1C00
1C00
1C00
1C00
1C00
1C00
1C00
1C00
1C00
1C00
1F80
1F80
1C00
1C00
1C00
1C00
1C00
1C00
1C00
1C00
1C00
1C00
1C00
FC00
FC00
FC00
ENDCHAR
STARTCHAR asciitilde
ENCODING 126
SWIDTH 636 0
DWIDTH 20 0
BBX 16 5 2 7
BITMAP
3C03
7F87
7FFF
E7FE
E07C
ENDCHAR
STARTCHAR uni00A0
ENCODING 160
SWIDTH 200 0
DWIDTH 6 0
BBX 1 1 0 0
BITMAP
00
ENDCHAR
STARTCHAR exclamdown
ENCODING 161
SWIDTH 253 0
DWIDTH 8 0
BBX 4 22 2 -6
BITMAP
F0
F0
F0
60
00
60
60
60
60
60
60
60
70
F0
F0
F0
F0
F0
F0
F0
F0
F0
ENDCHAR
STARTCHAR cent
ENCODING 162
SWIDTH 468 0
DWIDTH 15 0
BBX 12 21 2 -2
BITMAP
0180
0100
0100
1FC0
3FE0
7FF0
7370
F370
E200
E200
E200
E200
F200
F600
7E00
7FE0
3FF0
0FC0
0400
0400
0C00
ENDCHAR
STARTCHAR sterling
ENCODING 163
SWIDTH 454 0
DWIDTH 15 0
BBX 14 17 0 0
BITMAP
03F8
07F8
0F78
0E18
1E18
1C00
1C00
1C00
7FE0
7FE0
1C00
1C00
1C1C
381C
3FFC
7FFC
FFFC
ENDCHAR
STARTCHAR yen
ENCODING 165
SWIDTH 523 0
DWIDTH 17 0
BBX 15 16 1 0
BITMAP
FE7E
FE7E
7818
3C30
1E70
0EE0
07C0
3FF8
3FF8
0380
3FF8
3FF8
0380
07C0
0FC0
0FC0
ENDCHAR
STARTCHAR brokenbar
ENCODING 166
SWIDTH 257 0
DWIDTH 8 0
BBX 2 27 3 -3
BITMAP
C0
C0
C0
C0
C0
C0
C0
C0
C0
C0
00
00
00
00
00
00
00
C0
C0
C0
C0
C0
C0
C0
C0
C0
C0
ENDCHAR
STARTCHAR section
ENCODING 167
SWIDTH 573 0
DWIDTH 18 0
BBX 14 28 2 -6
BITMAP
0FF0
3FF8
7E3C
7C1C
FC1C
FC00
EE00
EE00
E700
E780
F3C0
71E0
78E0
3CF0
1E78
0E38
0F38
079C
039C
03DC
01DC
01D8
C0D8
E0F8
E1F0
FFE0
7FC0
1F00
ENDCHAR
STARTCHAR dieresis
ENCODING 168
SWIDTH 500 0
DWIDTH 16 0
BBX 11 4 2 19
BITMAP
61C0
F1E0
F1C0
61C0
ENDCHAR
STARTCHAR copyright
ENCODING 169
SWIDTH 880 0
DWIDTH 28 0
BBX 24 22 2 0
BITMAP
00FF00
0300C0
0C0030
180018
30000C
207E04
60FF06
41C302
41C182
418003
C18003
C18003
418003
41C182
41C302
60FF06
207E04
30000C
180018
0C0030
0700E0
01FF80
ENDCHAR
STARTCHAR ordfeminine
ENCODING 170
SWIDTH 530 0
DWIDTH 17 0
BBX 11 12 3 10
BITMAP
3F00
7F80
61C0
01C0
01C0
3FC0
71C0
E1C0
E1C0
F7E0
7FE0
1000
ENDCHAR
STARTCHAR guillemotleft
ENCODING 171
SWIDTH 493 0
DWIDTH 16 0
BBX 12 13 2 3
BITMAP
1C70
1CE0
38E0
39C0
71C0
7380
E380
F380
7380
79C0
39C0
3CE0
1CF0
ENDCHAR
STARTCHAR logicalnot
ENCODING 172
SWIDTH 530 0
DWIDTH 17 0
BBX 15 6 1 5
BITMAP
FFFE
FFFE
0006
0006
0006
0006
ENDCHAR
STARTCHAR uni00AD
ENCODING 173
SWIDTH 282 0
DWIDTH 9 0
BBX 7 2 1 7
BITMAP
FE
FE
ENDCHAR
STARTCHAR registered
ENCODING 174
SWIDTH 498 0
DWIDTH 16 0
BBX 12 12 2 12
BITMAP
0F00
30C0
4060
9F20
8910
8E10
8A10
8B10
5DA0
4040
3180
0E00
ENDCHAR
STARTCHAR macron
ENCODING 175
SWIDTH 500 0
DWIDTH 16 0
BBX 10 3 3 20
BITMAP
7F80
FFC0
FFC0
ENDCHAR
STARTCHAR degree
ENCODING 176
SWIDTH 336 0
DWIDTH 11 0
BBX 9 9 1 14
BITMAP
1C00
7E00
C100
C180
8180
8180
C100
6700
3E00
ENDCHAR
STARTCHAR plusminus
ENCODING 177
SWIDTH 530 0
DWIDTH 17 0
BBX 15 17 1 0
BITMAP
0380
0380
0380
0380
0380
0380
FFFE
FFFE
0380
0380
0380
0380
0380
0380
0380
FFFE
FFFE
ENDCHAR
STARTCHAR twosuperior
ENCODING 178
SWIDTH 345 0
DWIDTH 11 0
BBX 9 12 1 12
BITMAP
7E00
FF00
C380
C380
0380
0300
0700
0E00
1C00
7F80
FF80
7F80
ENDCHAR
STARTCHAR threesuperior
ENCODING 179
SWIDTH 335 0
DWIDTH 11 0
BBX 9 12 1 12
BITMAP
7E00
FF00
C300
0300
0700
3E00
3F00
0380
C380
C380
FF00
7E00
ENDCHAR
STARTCHAR acute
ENCODING 180
SWIDTH 500 0
DWIDTH 16 0
BBX 5 4 5 19
BITMAP
38
70
70
E0
ENDCHAR
STARTCHAR mu
ENCODING 181
SWIDTH 599 0
DWIDTH 19 0
BBX 15 22 3 -6
BITMAP
E038
E038
E038
E038
E038
E038
E038
E038
E038
E038
E038
E078
F078
F9FE
FFFE
FF1E
E000
E000
E000
E000
E000
E000
ENDCHAR
STARTCHAR paragraph
ENCODING 182
SWIDTH 525 0
DWIDTH 17 0
BBX 14 27 2 -5
BITMAP
03F8
1FFC
7FF8
7FE0
FFE0
FFE0
FFE0
FFE0
FFE0
FFE0
7FE0
3FE0
1FE0
00E0
00E0
00E0
00E0
00E0
00E0
00E0
00E0
00E0
00E0
01E0
3FE0
3FC0
3F80
ENDCHAR
STARTCHAR periodcentered
ENCODING 183
SWIDTH 253 0
DWIDTH 8 0
BBX 4 4 2 9
BITMAP
F0
F0
F0
F0
ENDCHAR
STARTCHAR cedilla
ENCODING 184
SWIDTH 500 0
DWIDTH 16 0
BBX 4 7 6 -7
BITMAP
60
60
F0
70
70
E0
80
ENDCHAR
STARTCHAR onesuperior
ENCODING 185
SWIDTH 301 0
DWIDTH 10 0
BBX 7 12 2 12
BITMAP
F8
F8
38
38
38
38
38
38
38
FC
FE
FC
ENDCHAR
STARTCHAR ordmasculine
ENCODING 186
SWIDTH 532 0
DWIDTH 17 0
BBX 11 12 3 10
BITMAP
1F80
7FC0
71C0
E0E0
E0E0
E0E0
E0E0
E0E0
E0C0
7BC0
3F80
0400
ENDCHAR
STARTCHAR guillemotright
ENCODING 187
SWIDTH 493 0
DWIDTH 16 0
BBX 12 13 2 3
BITMAP
E700
7380
73C0
39C0
39E0
1CE0
1CF0
1CE0
38E0
39C0
71C0
7380
E780
ENDCHAR
STARTCHAR onequarter
ENCODING 188
SWIDTH 900 0
DWIDTH 29 0
BBX 24 23 3 -1
BITMAP
000060
7800C0
F801C0
F80180
380380
380380
380300
380700
380600
380E00
380C18
FE1C3C
FE187C
00387C
0030DC
00719C
00619C
00E31C
00C3FF
01C3FF
01801C
03801C
030000
ENDCHAR
STARTCHAR onehalf
ENCODING 189
SWIDTH 900 0
DWIDTH 29 0
BBX 23 23 3 -1
BITMAP
0000C0
7801C0
F80180
F80380
380300
380700
380600
380E00
380C00
381C00
381878
FE39FC
FE338E
00730E
00600E
00E00E
00C00C
01C01C
018070
0380E0
0301FE
0701FE
060000
ENDCHAR
STARTCHAR threequarters
ENCODING 190
SWIDTH 900 0
DWIDTH 29 0
BBX 25 23 2 -1
BITMAP
00003000
1E006000
7F00E000
6380E000
C381C000
0381C000
1F018000
1F038000
03830000
01870000
E1860C00
F78E1E00
7F0C3E00
081C3E00
00186E00
0038CE00
0030CE00
00718E00
0061FF80
00E1FF80
00C00E00
01C00E00
01800000
ENDCHAR
STARTCHAR questiondown
ENCODING 191
SWIDTH 465 0
DWIDTH 15 0
BBX 13 22 1 -6
BITMAP
0380
07C0
0780
0100
0000
0380
0380
0380
0380
0380
0F80
1F80
3E00
7800
F000
F000
F000
F038
F078
7870
7FF0
3FC0
ENDCHAR
STARTCHAR Agrave
ENCODING 192
SWIDTH 696 0
DWIDTH 22 0
BBX 22 27 0 0
BITMAP
01E000
007000
007000
003000
000000
007800
00F800
00FC00
00DC00
01DC00
01DE00
01CE00
038E00
038F00
038F00
070780
070780
070780
0FFFC0
0FFFC0
0E03C0
1C01E0
1C01E0
1C01E0
FE03FC
FF07FC
FF07FC
ENDCHAR
STARTCHAR Aacute
ENCODING 193
SWIDTH 696 0
DWIDTH 22 0
BBX 22 27 0 0
BITMAP
001E00
001C00
003800
003000
000000
007800
00F800
00FC00
00DC00
01DC00
01DE00
01CE00
038E00
038F00
038F00
070780
070780
070780
0FFFC0
0FFFC0
0E03C0
1C01E0
1C01E0
1C01E0
FE03FC
FF07FC
FF07FC
ENDCHAR
STARTCHAR Acircumflex
ENCODING 194
SWIDTH 696 0
DWIDTH 22 0
BBX 22 28 0 0
BITMAP
007000
00F800
00DC00
01CE00
030700
000000
007800
00F800
00FC00
00DC00
01DC00
01DE00
01CE00
038E00
038F00
038F00
070780
070780
070780
0FFFC0
0FFFC0
0E03C0
1C01E0
1C01E0
1C01E0
FE03FC
FF07FC
FF07FC
ENDCHAR
STARTCHAR Atilde
ENCODING 195
SWIDTH 696 0
DWIDTH 22 0
BBX 22 27 0 0
BITMAP
03F180
03FF00
021F00
000000
000000
007800
00F800
00FC00
00DC00
01DC00
01DE00
01CE00
038E00
038F00
038F00
070780
070780
070780
0FFFC0
0FFFC0
0E03C0
1C01E0
1C01E0
1C01E0
FE03FC
FF07FC
FF07FC
ENDCHAR
STARTCHAR Adieresis
ENCODING 196
SWIDTH 696 0
DWIDTH 22 0
BBX 22 28 0 0
BITMAP
010200
03C700
03CF00
03C700
000000
000000
007800
00F800
00FC00
00DC00
01DC00
01DE00
01CE00
038E00
038F00
038F00
070780
070780
070780
0FFFC0
0FFFC0
0E03C0
1C01E0
1C01E0
1C01E0
FE03FC
FF07FC
FF07FC
ENDCHAR
STARTCHAR Aring
ENCODING 197
SWIDTH 696 0
DWIDTH 22 0
BBX 22 29 0 0
BITMAP
007800
00FC00
00CC00
00CC00
00CC00
007800
000000
007800
00F800
00FC00
00DC00
01DC00
01DE00
01CE00
038E00
038F00
038F00
070780
070780
070780
0FFFC0
0FFFC0
0E03C0
1C01E0
1C01E0
1C01E0
FE03FC
FF07FC
FF07FC
ENDCHAR
STARTCHAR AE
ENCODING 198
SWIDTH 879 0
DWIDTH 28 0
BBX 27 22 0 0
BITMAP
007FFFE0
007FFFE0
007FFFE0
001FC0E0
003BC0E0
003BC040
0073C000
0073C000
00E3C380
01C3C380
01C3FF80
0383FF80
0383C380
07FFC380
07FFC000
0E03C000
0E03C000
1C03C060
1C03C060
FE0FFFE0
FF0FFFE0
FF0FFFE0
ENDCHAR
STARTCHAR Ccedilla
ENCODING 199
SWIDTH 629 0
DWIDTH 20 0
BBX 18 29 1 -7
BITMAP
03FE00
07FF80
1FFFC0
1E03C0
3C01C0
7801C0
780180
780000
700000
F00000
F00000
F00000
F00000
F00000
780000
780000
7801C0
3C01C0
3E01C0
1FCFC0
0FFFC0
03FF00
002000
007000
007800
003800
003000
006000
004000
ENDCHAR
STARTCHAR Egrave
ENCODING 200
SWIDTH 555 0
DWIDTH 18 0
BBX 16 27 1 0
BITMAP
0780
0380
0180
00C0
0000
7FFE
FFFE
FFFE
3C06
3C06
3C06
3C00
3C00
3C18
3C18
3FF8
3FF8
3C18
3C18
3C00
3C00
3C00
3C07
3C07
7C07
FFFF
FFFF
ENDCHAR
STARTCHAR Eacute
ENCODING 201
SWIDTH 555 0
DWIDTH 18 0
BBX 16 27 1 0
BITMAP
0078
00E0
00E0
00C0
0000
7FFE
FFFE
FFFE
3C06
3C06
3C06
3C00
3C00
3C18
3C18
3FF8
3FF8
3C18
3C18
3C00
3C00
3C00
3C07
3C07
7C07
FFFF
FFFF
ENDCHAR
STARTCHAR Ecircumflex
ENCODING 202
SWIDTH 555 0
DWIDTH 18 0
BBX 16 28 1 0
BITMAP
01C0
03E0
0770
0E70
0C18
0000
7FFE
FFFE
FFFE
3C06
3C06
3C06
3C00
3C00
3C18
3C18
3FF8
3FF8
3C18
3C18
3C00
3C00
3C00
3C07
3C07
7C07
FFFF
FFFF
ENDCHAR
STARTCHAR Edieresis
ENCODING 203
SWIDTH 555 0
DWIDTH 18 0
BBX 16 28 1 0
BITMAP
0410
1E38
1E3C
1E38
0000
0000
7FFE
FFFE
FFFE
3C06
3C06
3C06
3C00
3C00
3C18
3C18
3FF8
3FF8
3C18
3C18
3C00
3C00
3C00
3C07
3C07
7C07
FFFF
FFFF
ENDCHAR
STARTCHAR Igrave
ENCODING 204
SWIDTH 328 0
DWIDTH 11 0
BBX 8 27 1 0
BITMAP
70
38
38
0C
00
7F
FF
FF
3C
3C
3C
3C
3C
3C
3C
3C
3C
3C
3C
3C
3C
3C
3C
3C
7F
FF
FF
ENDCHAR
STARTCHAR Iacute
ENCODING 205
SWIDTH 328 0
DWIDTH 11 0
BBX 8 27 1 0
BITMAP
0F
1C
1C
18
00
7F
FF
FF
3C
3C
3C
3C
3C
3C
3C
3C
3C
3C
3C
3C
3C
3C
3C
3C
7F
FF
FF
ENDCHAR
STARTCHAR Icircumflex
ENCODING 206
SWIDTH 328 0
DWIDTH 11 0
BBX 9 28 1 0
BITMAP
1C00
3E00
7700
E700
C180
0000
7F00
FF00
FF00
3C00
3C00
3C00
3C00
3C00
3C00
3C00
3C00
3C00
3C00
3C00
3C00
3C00
3C00
3C00
3C00
7F00
FF00
FF00
ENDCHAR
STARTCHAR Idieresis
ENCODING 207
SWIDTH 328 0
DWIDTH 11 0
BBX 10 28 0 0
BITMAP
4080
F1C0
F3C0
F1C0
0000
0000
3F80
7F80
7F80
1E00
1E00
1E00
1E00
1E00
1E00
1E00
1E00
1E00
1E00
1E00
1E00
1E00
1E00
1E00
1E00
3F80
7F80
7F80
ENDCHAR
STARTCHAR Eth
ENCODING 208
SWIDTH 692 0
DWIDTH 22 0
BBX 19 22 2 0
BITMAP
FFE000
FFFC00
FFFF00
381F80
380780
3803C0
3803C0
3803C0
3801E0
3801E0
FFE1E0
FFE1E0
3801E0
3801E0
3803C0
3803C0
3807C0
380780
381F00
F8FE00
FFFC00
FFE000
ENDCHAR
STARTCHAR Ntilde
ENCODING 209
SWIDTH 743 0
DWIDTH 24 0
BBX 22 27 1 0
BITMAP
03F300
07FF00
063F00
000000
000000
7C01FC
FE01FC
FE01FC
3F0070
3F8070
3F8070
3BC070
39E070
39E070
38F070
387870
387870
383C70
381E70
381E70
380F70
3807F0
3807F0
3803F0
7F01F0
FF01F0
FF00F0
ENDCHAR
STARTCHAR Ograve
ENCODING 210
SWIDTH 692 0
DWIDTH 22 0
BBX 20 27 1 0
BITMAP
01E000
00E000
007000
003000
000000
01FC00
07FF00
1FFF80
1E07C0
3C03E0
7801E0
7801E0
7001F0
7000F0
F000F0
F000F0
F000F0
F000F0
F000F0
7801E0
7801E0
7801E0
7C03C0
3E07C0
1FFF80
0FFF00
07FC00
ENDCHAR
STARTCHAR Oacute
ENCODING 211
SWIDTH 692 0
DWIDTH 22 0
BBX 20 27 1 0
BITMAP
003C00
003800
007000
006000
000000
01FC00
07FF00
1FFF80
1E07C0
3C03E0
7801E0
7801E0
7001F0
7000F0
F000F0
F000F0
F000F0
F000F0
F000F0
7801E0
7801E0
7801E0
7C03C0
3E07C0
1FFF80
0FFF00
07FC00
ENDCHAR
STARTCHAR Ocircumflex
ENCODING 212
SWIDTH 692 0
DWIDTH 22 0
BBX 20 28 1 0
BITMAP
007000
00F800
01DC00
038C00
030600
000000
01FC00
07FF00
1FFF80
1E07C0
3C03E0
7801E0
7801E0
7001F0
7000F0
F000F0
F000F0
F000F0
F000F0
F000F0
7801E0
7801E0
7801E0
7C03C0
3E07C0
1FFF80
0FFF00
07FC00
ENDCHAR
STARTCHAR Otilde
ENCODING 213
SWIDTH 692 0
DWIDTH 22 0
BBX 20 27 1 0
BITMAP
07E300
07FE00
043E00
000000
000000
01FC00
07FF00
1FFF80
1E07C0
3C03E0
7801E0
7801E0
7001F0
7000F0
F000F0
F000F0
F000F0
F000F0
F000F0
7801E0
7801E0
7801E0
7C03C0
3E07C0
1FFF80
0FFF00
07FC00
ENDCHAR
STARTCHAR Odieresis
ENCODING 214
SWIDTH 692 0
DWIDTH 22 0
BBX 20 28 1 0
BITMAP
020400
079E00
079E00
078E00
000000
000000
01FC00
07FF00
1FFF80
1E07C0
3C03E0
7801E0
7801E0
7001F0
7000F0
F000F0
F000F0
F000F0
F000F0
F000F0
7801E0
7801E0
7801E0
7C03C0
3E07C0
1FFF80
0FFF00
07FC00
ENDCHAR
STARTCHAR multiply
ENCODING 215
SWIDTH 530 0
DWIDTH 17 0
BBX 11 12 3 3
BITMAP
C060
E0E0
71C0
3B80
1F00
0E00
1F00
3B80
71C0
E0E0
C060
0040
ENDCHAR
STARTCHAR Oslash
ENCODING 216
SWIDTH 692 0
DWIDTH 22 0
BBX 20 27 1 -3
BITMAP
000700
000600
01FE00
07FF00
1FFF80
1E0FC0
3C1BE0
7819E0
7839E0
7031F0
7030F0
F070F0
F060F0
F060F0
F0E0F0
F0C0F0
78C1E0
7981E0
7981E0
7F83C0
3F07C0
1FFF80
0FFF00
07FC00
060000
0C0000
0C0000
ENDCHAR
STARTCHAR Ugrave
ENCODING 217
SWIDTH 713 0
DWIDTH 23 0
BBX 21 27 1 0
BITMAP
01E000
00E000
007000
003000
000000
FE03F8
FF03F8
FF03F8
3C00E0
3C00E0
3C00E0
3C00E0
3C00E0
3C00E0
3C00E0
3C00E0
3C00E0
3C00E0
3C00E0
3C00E0
3C00E0
3C01E0
3C01C0
1E03C0
1FFF80
0FFF00
07FE00
ENDCHAR
STARTCHAR Uacute
ENCODING 218
SWIDTH 713 0
DWIDTH 23 0
BBX 21 27 1 0
BITMAP
001E00
001C00
003800
003000
000000
FE03F8
FF03F8
FF03F8
3C00E0
3C00E0
3C00E0
3C00E0
3C00E0
3C00E0
3C00E0
3C00E0
3C00E0
3C00E0
3C00E0
3C00E0
3C00E0
3C01E0
3C01C0
1E03C0
1FFF80
0FFF00
07FE00
ENDCHAR
STARTCHAR Ucircumflex
ENCODING 219
SWIDTH 713 0
DWIDTH 23 0
BBX 21 28 1 0
BITMAP
007000
00F800
01DC00
018E00
030600
000000
FE03F8
FF03F8
FF03F8
3C00E0
3C00E0
3C00E0
3C00E0
3C00E0
3C00E0
3C00E0
3C00E0
3C00E0
3C00E0
3C00E0
3C00E0
3C00E0
3C01E0
3C01C0
1E03C0
1FFF80
0FFF00
07FE00
ENDCHAR
STARTCHAR Udieresis
ENCODING 220
SWIDTH 713 0
DWIDTH 23 0
BBX 21 28 1 0
BITMAP
010400
038F00
078F00
038F00
000000
000000
FE03F8
FF03F8
FF03F8
3C00E0
3C00E0
3C00E0
3C00E0
3C00E0
3C00E0
3C00E0
3C00E0
3C00E0
3C00E0
3C00E0
3C00E0
3C00E0
3C01E0
3C01C0
1E03C0
1FFF80
0FFF00
07FE00
ENDCHAR
STARTCHAR Yacute
ENCODING 221
SWIDTH 664 0
DWIDTH 21 0
BBX 21 27 0 0
BITMAP
001E00
001C00
003800
003000
000000
7F87F8
FF87F8
FF87F8
1E01C0
1F01C0
0F0380
078380
078700
03C600
03EE00
01FC00
00FC00
00F800
007800
007800
007800
007800
007800
007800
007C00
01FE00
01FE00
ENDCHAR
STARTCHAR Thorn
ENCODING 222
SWIDTH 565 0
DWIDTH 18 0
BBX 16 22 1 0
BITMAP
FF00
FF00
FF00
3C00
3FF0
3FFC
3FFE
3C1E
3C0F
3C0F
3C0F
3C0F
3C0F
3C1E
3FFC
3FF8
3FE0
3C00
3C00
7F80
FF80
FF80
ENDCHAR
STARTCHAR germandbls
ENCODING 223
SWIDTH 636 0
DWIDTH 20 0
BBX 19 24 1 0
BITMAP
07F800
0FFE00
1E1E00
3C0F00
3C0F00
3C0F00
3C0E00
3C1E00
3C3C00
3C3800
3C7000
3C7000
3CF000
3C7800
3C7C00
3C7F00
3C1F80
3C07C0
3C01E0
3C01E0
3C01E0
FE41C0
FF7FC0
FE7F80
ENDCHAR
STARTCHAR agrave
ENCODING 224
SWIDTH 524 0
DWIDTH 17 0
BBX 15 23 1 0
BITMAP
0F00
0700
0700
0380
0000
0000
0000
0FE0
3FF0
78F0
7078
7078
0078
0078
1FF8
7FF8
7838
F038
F038
F078
F8FC
7FBE
3F3E
ENDCHAR
STARTCHAR aacute
ENCODING 225
SWIDTH 524 0
DWIDTH 17 0
BBX 15 23 1 0
BITMAP
01E0
01C0
0380
0380
0000
0000
0000
0FE0
3FF0
78F0
7078
7078
0078
0078
1FF8
7FF8
7838
F038
F038
F078
F8FC
7FBE
3F3E
ENDCHAR
STARTCHAR acircumflex
ENCODING 226
SWIDTH 524 0
DWIDTH 17 0
BBX 15 24 1 0
BITMAP
0380
07C0
0FC0
1CE0
1C70
2000
0000
0000
0FE0
3FF0
78F0
7078
7078
0078
0078
1FF8
7FF8
7838
F038
F038
F078
F8FC
7FBE
3F3E
ENDCHAR
STARTCHAR atilde
ENCODING 227
SWIDTH 524 0
DWIDTH 17 0
BBX 15 23 1 0
BITMAP
1C10
3FF0
3FF0
20E0
0000
0000
0000
0FE0
3FF0
78F0
7078
7078
0078
0078
1FF8
7FF8
7838
F038
F038
F078
F8FC
7FBE
3F3E
ENDCHAR
STARTCHAR adieresis
ENCODING 228
SWIDTH 524 0
DWIDTH 17 0
BBX 15 23 1 0
BITMAP
3860
3CF0
3CF0
3860
0000
0000
0000
0FE0
3FF0
78F0
7078
7078
0078
0078
1FF8
7FF8
7838
F038
F038
F078
F8FC
7FBE
3F3E
ENDCHAR
STARTCHAR aring
ENCODING 229
SWIDTH 524 0
DWIDTH 17 0
BBX 15 25 1 0
BITMAP
0100
07C0
0CC0
0C40
0CC0
07C0
0780
0000
0000
0FE0
3FF0
78F0
7078
7078
0078
0078
1FF8
7FF8
7838
F038
F038
F078
F8FC
7FBE
3F3E
ENDCHAR
STARTCHAR ae
ENCODING 230
SWIDTH 778 0
DWIDTH 25 0
BBX 23 16 1 0
BITMAP
1FC3F0
3FEFF8
7CFFFC
707C1C
70781E
00781E
07FFFE
3FFFFE
7FF800
F07800
F03800
F03800
F03C00
F8FF1C
7FFFFC
3F87F8
ENDCHAR
STARTCHAR ccedilla
ENCODING 231
SWIDTH 468 0
DWIDTH 15 0
BBX 13 23 1 -7
BITMAP
0FE0
1FF0
3FF8
7838
7038
F018
F000
F000
F000
F000
F000
7000
7800
7E30
3FF8
0FF0
0100
0380
0380
01C0
0180
0300
0200
ENDCHAR
STARTCHAR egrave
ENCODING 232
SWIDTH 489 0
DWIDTH 16 0
BBX 14 23 1 0
BITMAP
0F00
0700
0380
0380
0000
0000
0000
0FE0
1FF0
3FF8
7838
7038
F03C
F03C
FFFC
FFFC
F000
F000
7000
7800
7E38
3FF8
1FF0
ENDCHAR
STARTCHAR eacute
ENCODING 233
SWIDTH 489 0
DWIDTH 16 0
BBX 14 23 1 0
BITMAP
00E0
01E0
01C0
0180
0200
0000
0000
0FE0
1FF0
3FF8
7838
7038
F03C
F03C
FFFC
FFFC
F000
F000
7000
7800
7E38
3FF8
1FF0
ENDCHAR
STARTCHAR ecircumflex
ENCODING 234
SWIDTH 489 0
DWIDTH 16 0
BBX 14 24 1 0
BITMAP
0380
07C0
0FC0
0EE0
1C70
0000
0000
0000
0FE0
1FF0
3FF8
7838
7038
F03C
F03C
FFFC
FFFC
F000
F000
7000
7800
7E38
3FF8
1FF0
ENDCHAR
STARTCHAR edieresis
ENCODING 235
SWIDTH 489 0
DWIDTH 16 0
BBX 14 23 1 0
BITMAP
1C70
3C78
3C78
1C70
0000
0000
0000
0FE0
1FF0
3FF8
7838
7038
F03C
F03C
FFFC
FFFC
F000
F000
7000
7800
7E38
3FF8
1FF0
ENDCHAR
STARTCHAR igrave
ENCODING 236
SWIDTH 294 0
DWIDTH 9 0
BBX 8 23 1 0
BITMAP
F0
70
38
38
00
00
00
F8
FC
FC
3C
3C
3C
3C
3C
3C
3C
3C
3C
3C
FF
FF
FF
ENDCHAR
STARTCHAR iacute
ENCODING 237
SWIDTH 294 0
DWIDTH 9 0
BBX 8 23 1 0
BITMAP
1E
1C
1C
38
00
00
00
F8
FC
FC
3C
3C
3C
3C
3C
3C
3C
3C
3C
3C
FF
FF
FF
ENDCHAR
STARTCHAR icircumflex
ENCODING 238
SWIDTH 294 0
DWIDTH 9 0
BBX 10 24 0 0
BITMAP
1C00
3E00
3F00
7700
E380
0040
0000
0000
7C00
7E00
7E00
1E00
1E00
1E00
1E00
1E00
1E00
1E00
1E00
1E00
1E00
7F80
7F80
7F80
ENDCHAR
STARTCHAR idieresis
ENCODING 239
SWIDTH 294 0
DWIDTH 9 0
BBX 10 23 -1 0
BITMAP
E1C0
F3C0
F3C0
E1C0
0000
0000
0000
3E00
3F00
3F00
0F00
0F00
0F00
0F00
0F00
0F00
0F00
0F00
0F00
0F00
3FC0
3FC0
3FC0
ENDCHAR
STARTCHAR eth
ENCODING 240
SWIDTH 528 0
DWIDTH 17 0
BBX 16 24 1 0
BITMAP
0F80
3FE0
7FF3
707E
6078
01F8
039C
001C
001C
001C
0F1E
3FDE
3FFE
787E
703E
F01E
F01E
F01E
F01C
F01C
703C
7C78
3FF0
1FE0
ENDCHAR
STARTCHAR ntilde
ENCODING 241
SWIDTH 604 0
DWIDTH 19 0
BBX 18 23 1 0
BITMAP
0E0400
1FFC00
1FFC00
183800
000000
000000
000000
F8F800
FBFE00
FFFE00
3E1E00
3C0E00
3C0F00
3C0F00
3C0F00
3C0F00
3C0F00
3C0F00
3C0F00
3C0F00
FF3F80
FF3FC0
FF3FC0
ENDCHAR
STARTCHAR ograve
ENCODING 242
SWIDTH 532 0
DWIDTH 17 0
BBX 15 23 1 0
BITMAP
0F00
0780
0380
0380
0040
0000
0000
0FE0
1FF8
3EFC
783C
701C
F01E
F01E
F01E
F01E
F01E
F01E
F01C
783C
7C78
3FF0
1FE0
ENDCHAR
STARTCHAR oacute
ENCODING 243
SWIDTH 532 0
DWIDTH 17 0
BBX 15 23 1 0
BITMAP
00F0
00E0
01C0
01C0
0000
0000
0000
0FE0
1FF8
3EFC
783C
701C
F01E
F01E
F01E
F01E
F01E
F01E
F01C
783C
7C78
3FF0
1FE0
ENDCHAR
STARTCHAR ocircumflex
ENCODING 244
SWIDTH 532 0
DWIDTH 17 0
BBX 15 24 1 0
BITMAP
0380
07C0
0EE0
0EE0
1C70
0000
0000
0000
0FE0
1FF8
3EFC
783C
701C
F01E
F01E
F01E
F01E
F01E
F01E
F01C
783C
7C78
3FF0
1FE0
ENDCHAR
STARTCHAR otilde
ENCODING 245
SWIDTH 532 0
DWIDTH 17 0
BBX 15 23 1 0
BITMAP
1C18
3FF8
3FF8
30F0
0000
0000
0000
0FE0
1FF8
3EFC
783C
701C
F01E
F01E
F01E
F01E
F01E
F01E
F01C
783C
7C78
3FF0
1FE0
ENDCHAR
STARTCHAR odieresis
ENCODING 246
SWIDTH 532 0
DWIDTH 17 0
BBX 15 23 1 0
BITMAP
1C30
1C78
1C78
1C30
0000
0000
0000
0FE0
1FF8
3EFC
783C
701C
F01E
F01E
F01E
F01E
F01E
F01E
F01C
783C
7C78
3FF0
1FE0
ENDCHAR
STARTCHAR divide
ENCODING 247
SWIDTH 530 0
DWIDTH 17 0
BBX 15 14 1 3
BITMAP
0380
07C0
07C0
07C0
0100
0000
7FFC
FFFE
7FFC
0000
0380
07C0
07C0
0780
ENDCHAR
STARTCHAR oslash
ENCODING 248
SWIDTH 532 0
DWIDTH 17 0
BBX 15 22 1 -3
BITMAP
0018
0018
0030
0FF0
1FF8
3EFC
78FC
70DC
F0DE
F19E
F19E
F31E
F31E
F61E
F61C
7C3C
7C78
3FF0
1FE0
1800
3000
3000
ENDCHAR
STARTCHAR ugrave
ENCODING 249
SWIDTH 599 0
DWIDTH 19 0
BBX 17 23 1 0
BITMAP
038000
03C000
01C000
00C000
002000
000000
000000
F87E00
F87E00
F87E00
380E00
380E00
380E00
380E00
380E00
380E00
380E00
380E00
381E00
3C1E00
3FFF80
1FFF80
0FC780
ENDCHAR
STARTCHAR uacute
ENCODING 250
SWIDTH 599 0
DWIDTH 19 0
BBX 17 23 1 0
BITMAP
00F000
00E000
01C000
01C000
000000
000000
000000
F87E00
F87E00
F87E00
380E00
380E00
380E00
380E00
380E00
380E00
380E00
380E00
381E00
3C1E00
3FFF80
1FFF80
0FC780
ENDCHAR
STARTCHAR ucircumflex
ENCODING 251
SWIDTH 599 0
DWIDTH 19 0
BBX 17 24 1 0
BITMAP
01C000
03E000
07F000
077000
0E3800
000000
000000
000000
F87E00
F87E00
F87E00
380E00
380E00
380E00
380E00
380E00
380E00
380E00
380E00
381E00
3C1E00
3FFF80
1FFF80
0FC780
ENDCHAR
STARTCHAR udieresis
ENCODING 252
SWIDTH 599 0
DWIDTH 19 0
BBX 17 23 1 0
BITMAP
0C3800
1E7800
1E7800
0C3800
000000
000000
000000
F87E00
F87E00
F87E00
380E00
380E00
380E00
380E00
380E00
380E00
380E00
380E00
381E00
3C1E00
3FFF80
1FFF80
0FC780
ENDCHAR
STARTCHAR yacute
ENCODING 253
SWIDTH 519 0
DWIDTH 17 0
BBX 16 31 0 -8
BITMAP
0078
0070
0070
00E0
0000
0000
0000
F83F
FC3F
FC3E
3C0E
1E0E
1E1C
1E1C
0E1C
0F38
0F38
0730
07F0
03F0
03E0
03E0
01C0
01C0
03C0
0380
0380
8700
FF00
FE00
3800
ENDCHAR
STARTCHAR thorn
ENCODING 254
SWIDTH 584 0
DWIDTH 19 0
BBX 17 31 1 -7
BITMAP
F80000
F80000
F80000
380000
380000
380000
380000
380000
38F800
3BFE00
3FFE00
3E0F00
3C0F00
3C0700
380780
380780
380780
380700
380700
380F00
3C0F00
3F3E00
3FFC00
3BF800
380000
380000
380000
380000
380000
FF8000
FF8000
ENDCHAR
STARTCHAR ydieresis
ENCODING 255
SWIDTH 519 0
DWIDTH 17 0
BBX 16 31 0 -8
BITMAP
0E38
1E3C
1E3C
0E38
0000
0000
0000
F83F
FC3F
FC3E
3C0E
1E0E
1E1C
1E1C
0E1C
0F38
0F38
0730
07F0
03F0
03E0
03E0
01C0
01C0
03C0
0380
0380
8700
FF00
FE00
3800
ENDCHAR
STARTCHAR Amacron
ENCODING 256
SWIDTH 696 0
DWIDTH 22 0
BBX 22 27 0 0
BITMAP
03FF00
03FF00
03FF00
000000
000000
007800
00F800
00FC00
00DC00
01DC00
01DE00
01CE00
038E00
038F00
038F00
070780
070780
070780
0FFFC0
0FFFC0
0E03C0
1C01E0
1C01E0
1C01E0
FE03FC
FF07FC
FF07FC
ENDCHAR
STARTCHAR amacron
ENCODING 257
SWIDTH 524 0
DWIDTH 17 0
BBX 15 22 1 0
BITMAP
3FF0
3FF0
0000
0000
0000
0000
0FE0
3FF0
78F0
7078
7078
0078
0078
1FF8
7FF8
7838
F038
F038
F078
F8FC
7FBE
3F3E
ENDCHAR
STARTCHAR Abreve
ENCODING 258
SWIDTH 696 0
DWIDTH 22 0
BBX 22 28 0 0
BITMAP
030380
038700
03FF00
01FE00
000000
000000
007800
00F800
00FC00
00DC00
01DC00
01DE00
01CE00
038E00
038F00
038F00
070780
070780
070780
0FFFC0
0FFFC0
0E03C0
1C01E0
1C01E0
1C01E0
FE03FC
FF07FC
FF07FC
ENDCHAR
STARTCHAR abreve
ENCODING 259
SWIDTH 524 0
DWIDTH 17 0
BBX 15 23 1 0
BITMAP
3030
3870
3FF0
1FE0
0000
0000
0000
0FE0
3FF0
78F0
7078
7078
0078
0078
1FF8
7FF8
7838
F038
F038
F078
F8FC
7FBE
3F3E
ENDCHAR
STARTCHAR Aogonek
ENCODING 260
SWIDTH 696 0
DWIDTH 22 0
BBX 22 29 0 -7
BITMAP
007800
00F800
00FC00
00DC00
01DC00
01DE00
01CE00
038E00
038F00
038F00
070780
070780
070780
0FFFC0
0FFFC0
0E03C0
1C01E0
1C01E0
1C01E0
FE03FC
FF07FC
FF07FC
000060
0000C0
000180
000180
000380
0003F0
0001F0
ENDCHAR
STARTCHAR aogonek
ENCODING 261
SWIDTH 540 0
DWIDTH 17 0
BBX 15 23 1 -7
BITMAP
0FE0
3FF0
78F0
7078
7078
0078
0078
1FF8
7FF8
7838
F038
F038
F078
F8FC
7FBE
3F3E
0018
0030
0030
0060
0060
007E
007C
ENDCHAR
STARTCHAR Cacute
ENCODING 262
SWIDTH 629 0
DWIDTH 20 0
BBX 18 27 1 0
BITMAP
003C00
003800
003000
006000
000000
03FE00
07FF80
1FFFC0
1E03C0
3C01C0
7801C0
780180
780000
700000
F00000
F00000
F00000
F00000
F00000
780000
780000
7801C0
3C01C0
3E01C0
1FCFC0
0FFFC0
03FF00
ENDCHAR
STARTCHAR cacute
ENCODING 263
SWIDTH 468 0
DWIDTH 15 0
BBX 13 23 1 0
BITMAP
00F0
00E0
01C0
01C0
0000
0000
0000
0FE0
1FF0
3FF8
7838
7038
F018
F000
F000
F000
F000
F000
7000
7800
7E30
3FF8
0FF0
ENDCHAR
STARTCHAR Ccircumflex
ENCODING 264
SWIDTH 629 0
DWIDTH 20 0
BBX 18 28 1 0
BITMAP
007000
00F800
01DC00
038E00
030600
000000
03FE00
07FF80
1FFFC0
1E03C0
3C01C0
7801C0
780180
780000
700000
F00000
F00000
F00000
F00000
F00000
780000
780000
7801C0
3C01C0
3E01C0
1FCFC0
0FFFC0
03FF00
ENDCHAR
STARTCHAR ccircumflex
ENCODING 265
SWIDTH 468 0
DWIDTH 15 0
BBX 13 24 1 0
BITMAP
0380
07C0
07E0
0E60
1C70
0008
0000
0000
0FE0
1FF0
3FF8
7838
7038
F018
F000
F000
F000
F000
F000
7000
7800
7E30
3FF8
0FF0
ENDCHAR
STARTCHAR Cdotaccent
ENCODING 266
SWIDTH 629 0
DWIDTH 20 0
BBX 18 28 1 0
BITMAP
007000
00F000
00F800
00F000
006000
000000
03FE00
07FF80
1FFFC0
1E03C0
3C01C0
7801C0
780180
780000
700000
F00000
F00000
F00000
F00000
F00000
780000
780000
7801C0
3C01C0
3E01C0
1FCFC0
0FFFC0
03FF00
ENDCHAR
STARTCHAR cdotaccent
ENCODING 267
SWIDTH 468 0
DWIDTH 15 0
BBX 13 23 1 0
BITMAP
0100
03C0
07C0
07C0
0380
0000
0000
0FE0
1FF0
3FF8
7838
7038
F018
F000
F000
F000
F000
F000
7000
7800
7E30
3FF8
0FF0
ENDCHAR
STARTCHAR Ccaron
ENCODING 268
SWIDTH 629 0
DWIDTH 20 0
BBX 18 28 1 0
BITMAP
030600
038E00
01DC00
00F800
007000
000000
03FE00
07FF80
1FFFC0
1E03C0
3C01C0
7801C0
780180
780000
700000
F00000
F00000
F00000
F00000
F00000
780000
780000
7801C0
3C01C0
3E01C0
1FCFC0
0FFFC0
03FF00
ENDCHAR
STARTCHAR ccaron
ENCODING 269
SWIDTH 468 0
DWIDTH 15 0
BBX 13 24 1 0
BITMAP
1C38
0E70
0EE0
07E0
07C0
0000
0000
0000
0FE0
1FF0
3FF8
7838
7038
F018
F000
F000
F000
F000
F000
7000
7800
7E30
3FF8
0FF0
ENDCHAR
STARTCHAR Dcaron
ENCODING 270
SWIDTH 679 0
DWIDTH 22 0
BBX 19 28 1 0
BITMAP
1C1800
0E7000
076000
03E000
01C000
000000
7FF000
FFFE00
FFFF00
3C0F80
3C07C0
3C03C0
3C01E0
3C01E0
3C01E0
3C01E0
3C00E0
3C01E0
3C01E0
3C01E0
3C01E0
3C01E0
3C03C0
3C07C0
3C0F80
7CFF00
FFFC00
FFF000
ENDCHAR
STARTCHAR dcaron
ENCODING 271
SWIDTH 609 0
DWIDTH 19 0
BBX 20 24 1 0
BITMAP
007E70
007E70
007E70
001E70
001E70
001E60
001E60
001E00
0FDE00
1FFE00
3FFE00
783E00
701E00
F01E00
F01E00
F01E00
F01E00
F01E00
F01E00
F01E00
783E00
7EFF00
3FEF80
1FCF80
ENDCHAR
STARTCHAR Dcroat
ENCODING 272
SWIDTH 692 0
DWIDTH 22 0
BBX 19 22 2 0
BITMAP
FFE000
FFFC00
FFFF00
381F80
380780
3803C0
3803C0
3803C0
3801E0
3801E0
FFE1E0
FFE1E0
3801E0
3801E0
3803C0
3803C0
3807C0
380780
381F00
F8FE00
FFFC00
FFE000
ENDCHAR
STARTCHAR dcroat
ENCODING 273
SWIDTH 583 0
DWIDTH 19 0
BBX 17 24 1 0
BITMAP
007E00
007E00
007E00
001E00
03FF00
03FF80
001E00
001E00
079E00
1FFE00
3FFE00
7C3E00
781E00
F01E00
F01E00
F01E00
F01E00
F01E00
F01E00
F01E00
783E00
7EFF00
3FEF80
1FCF80
ENDCHAR
STARTCHAR Emacron
ENCODING 274
SWIDTH 555 0
DWIDTH 18 0
BBX 16 27 1 0
BITMAP
0FF8
0FF8
0FF8
0000
0000
7FFE
FFFE
FFFE
3C06
3C06
3C06
3C00
3C00
3C18
3C18
3FF8
3FF8
3C18
3C18
3C00
3C00
3C00
3C07
3C07
7C07
FFFF
FFFF
ENDCHAR
STARTCHAR emacron
ENCODING 275
SWIDTH 489 0
DWIDTH 16 0
BBX 14 22 1 0
BITMAP
1FF0
1FF0
0000
0000
0000
0000
0FE0
1FF0
3FF8
7838
7038
F03C
F03C
FFFC
FFFC
F000
F000
7000
7800
7E38
3FF8
1FF0
ENDCHAR
STARTCHAR Ebreve
ENCODING 276
SWIDTH 555 0
DWIDTH 18 0
BBX 16 28 1 0
BITMAP
181C
1C38
1FF8
0FF0
0000
0000
7FFE
FFFE
FFFE
3C06
3C06
3C06
3C00
3C00
3C18
3C18
3FF8
3FF8
3C18
3C18
3C00
3C00
3C00
3C07
3C07
7C07
FFFF
FFFF
ENDCHAR
STARTCHAR ebreve
ENCODING 277
SWIDTH 489 0
DWIDTH 16 0
BBX 14 23 1 0
BITMAP
3838
3838
1FF0
0FE0
0000
0000
0000
0FE0
1FF0
3FF8
7838
7038
F03C
F03C
FFFC
FFFC
F000
F000
7000
7800
7E38
3FF8
1FF0
ENDCHAR
STARTCHAR Edotaccent
ENCODING 278
SWIDTH 555 0
DWIDTH 18 0
BBX 16 28 1 0
BITMAP
01C0
03C0
03E0
03C0
0180
0000
7FFE
FFFE
FFFE
3C06
3C06
3C06
3C00
3C00
3C18
3C18
3FF8
3FF8
3C18
3C18
3C00
3C00
3C00
3C07
3C07
7C07
FFFF
FFFF
ENDCHAR
STARTCHAR edotaccent
ENCODING 279
SWIDTH 489 0
DWIDTH 16 0
BBX 14 23 1 0
BITMAP
0300
0780
0780
0780
0380
0000
0000
0FE0
1FF0
3FF8
7838
7038
F03C
F03C
FFFC
FFFC
F000
F000
7000
7800
7E38
3FF8
1FF0
ENDCHAR
STARTCHAR Eogonek
ENCODING 280
SWIDTH 555 0
DWIDTH 18 0
BBX 16 29 1 -7
BITMAP
7FFE
FFFE
FFFE
3C06
3C06
3C06
3C00
3C00
3C18
3C18
3FF8
3FF8
3C18
3C18
3C00
3C00
3C00
3C07
3C07
7C07
FFFF
FFFF
0018
0038
0030
0070
0070
007E
003E
ENDCHAR
STARTCHAR eogonek
ENCODING 281
SWIDTH 489 0
DWIDTH 16 0
BBX 14 23 1 -7
BITMAP
0FE0
1FF0
3FF8
7838
7038
F03C
F03C
FFFC
FFFC
F000
F000
7000
7800
7E38
3FF8
1FF0
00E0
01C0
0180
0380
0380
03F0
01F0
ENDCHAR
STARTCHAR Ecaron
ENCODING 282
SWIDTH 555 0
DWIDTH 18 0
BBX 16 28 1 0
BITMAP
0C18
0E30
0770
03E0
01C0
0000
7FFE
FFFE
FFFE
3C06
3C06
3C06
3C00
3C00
3C18
3C18
3FF8
3FF8
3C18
3C18
3C00
3C00
3C00
3C07
3C07
7C07
FFFF
FFFF
ENDCHAR
STARTCHAR ecaron
ENCODING 283
SWIDTH 489 0
DWIDTH 16 0
BBX 14 24 1 0
BITMAP
1870
1C60
0EE0
0FC0
07C0
0000
0000
0000
0FE0
1FF0
3FF8
7838
7038
F03C
F03C
FFFC
FFFC
F000
F000
7000
7800
7E38
3FF8
1FF0
ENDCHAR
STARTCHAR Gcircumflex
ENCODING 284
SWIDTH 695 0
DWIDTH 22 0
BBX 21 28 1 0
BITMAP
007000
00F800
01DC00
038C00
030600
000000
01FE00
07FF80
1FFFC0
1E03C0
3C01C0
7801C0
780180
780000
700000
F00000
F00000
F00000
F007F8
7007F8
7807F0
7801C0
7801C0
3C01C0
3E01C0
1FFFC0
0FFFC0
03FF00
ENDCHAR
STARTCHAR gcircumflex
ENCODING 285
SWIDTH 570 0
DWIDTH 18 0
BBX 17 32 1 -8
BITMAP
01C000
03E000
077000
077000
0E3800
000000
000000
000000
0FCF80
3FEF80
3FFF80
783E00
701E00
F01E00
F01E00
F01E00
F01E00
F01E00
F01E00
F01E00
783E00
7EFE00
3FFE00
1FDE00
001E00
001E00
001C00
003C00
307C00
3FF800
3FF000
078000
ENDCHAR
STARTCHAR Gbreve
ENCODING 286
SWIDTH 695 0
DWIDTH 22 0
BBX 21 28 1 0
BITMAP
030300
038700
03FF00
01FE00
000000
000000
01FE00
07FF80
1FFFC0
1E03C0
3C01C0
7801C0
780180
780000
700000
F00000
F00000
F00000
F007F8
7007F8
7807F0
7801C0
7801C0
3C01C0
3E01C0
1FFFC0
0FFFC0
03FF00
ENDCHAR
STARTCHAR gbreve
ENCODING 287
SWIDTH 570 0
DWIDTH 18 0
BBX 17 31 1 -8
BITMAP
181C00
1C3800
0FF800
07F000
000000
000000
000000
0FCF80
3FEF80
3FFF80
783E00
701E00
F01E00
F01E00
F01E00
F01E00
F01E00
F01E00
F01E00
783E00
7EFE00
3FFE00
1FDE00
001E00
001E00
001C00
003C00
307C00
3FF800
3FF000
078000
ENDCHAR
STARTCHAR Gdotaccent
ENCODING 288
SWIDTH 695 0
DWIDTH 22 0
BBX 21 28 1 0
BITMAP
007000
00F800
00F800
007800
002000
000000
01FE00
07FF80
1FFFC0
1E03C0
3C01C0
7801C0
780180
780000
700000
F00000
F00000
F00000
F007F8
7007F8
7807F0
7801C0
7801C0
3C01C0
3E01C0
1FFFC0
0FFFC0
03FF00
ENDCHAR
STARTCHAR gdotaccent
ENCODING 289
SWIDTH 570 0
DWIDTH 18 0
BBX 17 31 1 -8
BITMAP
018000
03C000
03C000
03C000
018000
000000
000000
0FCF80
3FEF80
3FFF80
783E00
701E00
F01E00
F01E00
F01E00
F01E00
F01E00
F01E00
F01E00
783E00
7EFE00
3FFE00
1FDE00
001E00
001E00
001C00
003C00
307C00
3FF800
3FF000
078000
ENDCHAR
STARTCHAR Gcommaaccent
ENCODING 290
SWIDTH 695 0
DWIDTH 22 0
BBX 21 31 1 -9
BITMAP
01FE00
07FF80
1FFFC0
1E03C0
3C01C0
7801C0
780180
780000
700000
F00000
F00000
F00000
F007F8
7007F8
7807F0
7801C0
7801C0
3C01C0
3E01C0
1FFFC0
0FFFC0
03FF00
000000
000000
006000
00F000
00F000
006000
006000
004000
00C000
ENDCHAR
STARTCHAR gcommaaccent
ENCODING 291
SWIDTH 570 0
DWIDTH 18 0
BBX 17 34 1 -8
BITMAP
008000
00C000
018000
018000
038000
03C000
03C000
000000
000000
000000
0FCF80
3FEF80
3FFF80
783E00
701E00
F01E00
F01E00
F01E00
F01E00
F01E00
F01E00
F01E00
783E00
7EFE00
3FFE00
1FDE00
001E00
001E00
001C00
003C00
307C00
3FF800
3FF000
078000
ENDCHAR
STARTCHAR Hcircumflex
ENCODING 292
SWIDTH 743 0
DWIDTH 24 0
BBX 22 28 1 0
BITMAP
007000
00F800
00DC00
01CE00
030700
000000
7F03F8
FF03FC
FF03F8
3C00E0
3C00E0
3C00E0
3C00E0
3C00E0
3C00E0
3FFFE0
3FFFE0
3FFFE0
3C00E0
3C00E0
3C00E0
3C00E0
3C00E0
3C00E0
3C00E0
7F03F8
FF03FC
FF03FC
ENDCHAR
STARTCHAR hcircumflex
ENCODING 293
SWIDTH 599 0
DWIDTH 19 0
BBX 20 29 -1 0
BITMAP
1E0000
3E0000
770000
E38000
000000
3E0000
3E0000
3E0000
0E0000
0E0000
0E0000
0E0000
0E0000
0E3E00
0EFF00
0FFF80
0F8780
0F0780
0F0380
0E0380
0E0380
0E0380
0E0380
0E0380
0E0380
0E0380
3F8FE0
3FCFF0
3FCFF0
ENDCHAR
STARTCHAR Hbar
ENCODING 294
SWIDTH 743 0
DWIDTH 24 0
BBX 22 22 1 0
BITMAP
7F03F8
FF03FC
FF03F8
3C00E0
3C00E0
FFFFFC
3C00E0
3C00E0
3C00E0
3FFFE0
3FFFE0
3FFFE0
3C00E0
3C00E0
3C00E0
3C00E0
3C00E0
3C00E0
3C00E0
7F03F8
FF03FC
FF03FC
ENDCHAR
STARTCHAR hbar
ENCODING 295
SWIDTH 599 0
DWIDTH 19 0
BBX 18 24 1 0
BITMAP
F80000
F80000
F80000
380000
FFC000
FFE000
380000
380000
38F800
39FC00
3BFE00
3F3E00
3C1E00
3C0E00
380E00
380E00
380E00
380E00
380E00
380E00
380E00
FE3F80
FF3FC0
FF3FC0
ENDCHAR
STARTCHAR Itilde
ENCODING 296
SWIDTH 328 0
DWIDTH 11 0
BBX 11 27 0 0
BITMAP
FC60
FFE0
C7C0
0000
0000
3F80
7F80
7F80
1E00
1E00
1E00
1E00
1E00
1E00
1E00
1E00
1E00
1E00
1E00
1E00
1E00
1E00
1E00
1E00
3F80
7F80
7F80
ENDCHAR
STARTCHAR itilde
ENCODING 297
SWIDTH 294 0
DWIDTH 9 0
BBX 11 23 -1 0
BITMAP
3020
7F60
FFE0
C1C0
0000
0000
0000
3E00
3F00
3F00
0F00
0F00
0F00
0F00
0F00
0F00
0F00
0F00
0F00
0F00
3FC0
3FC0
3FC0
ENDCHAR
STARTCHAR Imacron
ENCODING 298
SWIDTH 328 0
DWIDTH 11 0
BBX 10 27 0 0
BITMAP
7FC0
FFC0
7FC0
0000
0000
3F80
7F80
7F80
1E00
1E00
1E00
1E00
1E00
1E00
1E00
1E00
1E00
1E00
1E00
1E00
1E00
1E00
1E00
1E00
3F80
7F80
7F80
ENDCHAR
STARTCHAR imacron
ENCODING 299
SWIDTH 294 0
DWIDTH 9 0
BBX 9 22 0 0
BITMAP
FF80
FF80
0000
0000
0000
0000
7C00
7E00
7E00
1E00
1E00
1E00
1E00
1E00
1E00
1E00
1E00
1E00
1E00
7F80
7F80
7F80
ENDCHAR
STARTCHAR Ibreve
ENCODING 300
SWIDTH 328 0
DWIDTH 11 0
BBX 11 28 0 0
BITMAP
C0E0
E0E0
7FC0
3F80
0000
0000
3F80
7F80
7F80
1E00
1E00
1E00
1E00
1E00
1E00
1E00
1E00
1E00
1E00
1E00
1E00
1E00
1E00
1E00
1E00
3F80
7F80
7F80
ENDCHAR
STARTCHAR ibreve
ENCODING 301
SWIDTH 294 0
DWIDTH 9 0
BBX 11 23 -1 0
BITMAP
E060
70E0
7FC0
3F80
0000
0000
0000
3E00
3F00
3F00
0F00
0F00
0F00
0F00
0F00
0F00
0F00
0F00
0F00
0F00
3FC0
3FC0
3FC0
ENDCHAR
STARTCHAR Iogonek
ENCODING 302
SWIDTH 328 0
DWIDTH 11 0
BBX 8 29 1 -7
BITMAP
7F
FF
FF
3C
3C
3C
3C
3C
3C
3C
3C
3C
3C
3C
3C
3C
3C
3C
3C
7F
FF
FF
18
38
30
70
70
7E
3E
ENDCHAR
STARTCHAR iogonek
ENCODING 303
SWIDTH 294 0
DWIDTH 9 0
BBX 8 30 1 -7
BITMAP
10
78
7C
7C
38
00
00
F8
FC
FC
3C
3C
3C
3C
3C
3C
3C
3C
3C
3C
FF
FF
FF
18
30
60
60
E0
7C
7C
ENDCHAR
STARTCHAR Idotaccent
ENCODING 304
SWIDTH 328 0
DWIDTH 11 0
BBX 8 28 1 0
BITMAP
1C
3C
3C
3C
18
00
7F
FF
FF
3C
3C
3C
3C
3C
3C
3C
3C
3C
3C
3C
3C
3C
3C
3C
3C
7F
FF
FF
ENDCHAR
STARTCHAR dotlessi
ENCODING 305
SWIDTH 294 0
DWIDTH 9 0
BBX 8 16 1 0
BITMAP
F8
FC
FC
3C
3C
3C
3C
3C
3C
3C
3C
3C
3C
FF
FF
FF
ENDCHAR
STARTCHAR IJ
ENCODING 306
SWIDTH 657 0
DWIDTH 21 0
BBX 19 30 1 -8
BITMAP
7F1FE0
FF1FE0
FF1FE0
3C0780
3C0780
3C0780
3C0780
3C0780
3C0780
3C0780
3C0780
3C0780
3C0780
3C0780
3C0780
3C0780
3C0780
3C0780
3C0780
7F0780
FF0780
FF0780
000780
000780
000780
000700
008F00
01FF00
01FE00
007000
ENDCHAR
STARTCHAR ij
ENCODING 307
SWIDTH 583 0
DWIDTH 19 0
BBX 15 31 1 -8
BITMAP
100C
781E
7C1E
7C1E
381C
0000
0000
F87E
FC7E
FC7E
3C1E
3C1E
3C1E
3C1E
3C1E
3C1E
3C1E
3C1E
3C1E
3C1E
FF1E
FF1E
FF1E
001E
001E
001E
001E
023C
03FC
07F8
01C0
ENDCHAR
STARTCHAR Jcircumflex
ENCODING 308
SWIDTH 329 0
DWIDTH 11 0
BBX 13 36 -3 -8
BITMAP
01C0
03E0
0770
0E70
0C18
0000
07F0
0FF0
0FF0
03C0
03C0
03C0
03C0
03C0
03C0
03C0
03C0
03C0
03C0
03C0
03C0
03C0
03C0
03C0
03C0
03C0
03C0
03C0
03C0
03C0
03C0
03C0
47C0
7F80
FF00
3800
ENDCHAR
STARTCHAR jcircumflex
ENCODING 309
SWIDTH 289 0
DWIDTH 9 0
BBX 12 32 -3 -8
BITMAP
0380
07C0
0FC0
1CE0
1C70
2000
0000
0000
0F80
0FC0
0FC0
03C0
03C0
03C0
03C0
03C0
03C0
03C0
03C0
03C0
03C0
03C0
03C0
03C0
03C0
03C0
03C0
0380
4F80
FF80
FF00
3800
ENDCHAR
STARTCHAR Kcommaaccent
ENCODING 310
SWIDTH 664 0
DWIDTH 21 0
BBX 19 31 1 -9
BITMAP
7F0FE0
FF1FE0
FF0FE0
3C0700
3C0F00
3C1E00
3C3C00
3C3800
3C7000
3CE000
3FE000
3FE000
3CF000
3CF800
3C7800
3C3C00
3C1E00
3C1F00
3C0F00
7F07E0
FF07E0
FF03E0
000000
000000
006000
00F000
00F000
00E000
006000
00C000
008000
ENDCHAR
STARTCHAR kcommaaccent
ENCODING 311
SWIDTH 566 0
DWIDTH 18 0
BBX 17 33 1 -9
BITMAP
F80000
FC0000
FC0000
3C0000
3C0000
3C0000
3C0000
3C0000
3C0F00
3C1F00
3C3F00
3C7800
3CF000
3FE000
3FC000
3FE000
3DE000
3CF000
3CF800
3C7800
3C3C00
FE3F00
FF1F80
FF1F80
000000
000000
018000
03C000
03C000
01C000
018000
010000
030000
ENDCHAR
STARTCHAR kgreenlandic
ENCODING 312
SWIDTH 566 0
DWIDTH 18 0
BBX 17 16 1 0
BITMAP
FC0F00
FC1F00
FC3F00
3C7800
3C7000
3CE000
3DE000
3FC000
3FE000
3DF000
3CF000
3C7800
3C7C00
FE3F80
FF1F80
FF1F80
ENDCHAR
STARTCHAR Lacute
ENCODING 313
SWIDTH 525 0
DWIDTH 17 0
BBX 15 29 1 -2
BITMAP
0F00
0E00
1C00
1800
0000
7F80
FF80
FF80
3C00
3C00
3C00
3C00
3C00
3C00
3C00
3C00
3C00
3C00
3C00
3C00
3C00
3C00
3C06
3C06
7FFE
FFFE
FFFE
0006
0006
ENDCHAR
STARTCHAR lacute
ENCODING 314
SWIDTH 294 0
DWIDTH 9 0
BBX 8 29 1 0
BITMAP
0E
1C
1C
38
00
F8
FC
FC
3C
3C
3C
3C
3C
3C
3C
3C
3C
3C
3C
3C
3C
3C
3C
3C
3C
3C
FF
FF
FF
ENDCHAR
STARTCHAR Lcommaaccent
ENCODING 315
SWIDTH 525 0
DWIDTH 17 0
BBX 15 31 1 -9
BITMAP
7F80
FF80
FF80
3C00
3C00
3C00
3C00
3C00
3C00
3C00
3C00
3C00
3C00
3C00
3C00
3C00
3C00
3C06
3C06
7FFE
FFFE
FFFE
0006
0006
0100
0380
0380
0380
0300
0300
0200
ENDCHAR
STARTCHAR lcommaaccent
ENCODING 316
SWIDTH 294 0
DWIDTH 9 0
BBX 8 33 1 -9
BITMAP
F8
FC
FC
3C
3C
3C
3C
3C
3C
3C
3C
3C
3C
3C
3C
3C
3C
3C
3C
3C
3C
FF
FF
FF
00
00
18
3C
3C
18
18
30
20
ENDCHAR
STARTCHAR Lcaron
ENCODING 317
SWIDTH 525 0
DWIDTH 17 0
BBX 15 24 1 -2
BITMAP
7F9C
FF9C
FF9C
3C1C
3C18
3C18
3C18
3C00
3C00
3C00
3C00
3C00
3C00
3C00
3C00
3C00
3C00
3C06
3C06
7FFE
FFFE
FFFE
0006
0006
ENDCHAR
STARTCHAR lcaron
ENCODING 318
SWIDTH 316 0
DWIDTH 10 0
BBX 11 24 1 0
BITMAP
F8E0
FCE0
FCC0
3CC0
3CC0
3CC0
3CC0
3C00
3C00
3C00
3C00
3C00
3C00
3C00
3C00
3C00
3C00
3C00
3C00
3C00
3C00
FF00
FF00
FF00
ENDCHAR
STARTCHAR Ldot
ENCODING 319
SWIDTH 525 0
DWIDTH 17 0
BBX 15 24 1 -2
BITMAP
7F80
FF80
FF80
3C00
3C00
3C00
3C00
3C00
3C00
3C18
3C3C
3C3E
3C3C
3C18
3C00
3C00
3C00
3C06
3C06
7FFE
FFFE
FFFE
0006
0006
ENDCHAR
STARTCHAR ldot
ENCODING 320
SWIDTH 401 0
DWIDTH 13 0
BBX 12 24 1 0
BITMAP
F800
FC00
FC00
3C00
3C00
3C00
3C00
3C00
3C00
3C00
3C20
3CF0
3CF0
3CF0
3C70
3C00
3C00
3C00
3C00
3C00
3C00
FF00
FF00
FF00
ENDCHAR
STARTCHAR Lslash
ENCODING 321
SWIDTH 525 0
DWIDTH 17 0
BBX 15 24 1 -2
BITMAP
7F80
FF80
FF80
3C00
3C00
3C00
3C00
3C00
3C30
3DF0
3FC0
FE00
FC00
3C00
3C00
3C00
3C00
3C06
3C06
7FFE
FFFE
FFFE
0006
0006
ENDCHAR
STARTCHAR lslash
ENCODING 322
SWIDTH 294 0
DWIDTH 9 0
BBX 10 24 0 0
BITMAP
7C00
7E00
7E00
1E00
1E00
1E00
1E00
1E00
1E00
1EC0
1FC0
3F00
FE00
DE00
1E00
1E00
1E00
1E00
1E00
1E00
1E00
7F80
7F80
7F80
ENDCHAR
STARTCHAR Nacute
ENCODING 323
SWIDTH 743 0
DWIDTH 24 0
BBX 22 27 1 0
BITMAP
001E00
001C00
003800
003000
000000
7C01FC
FE01FC
FE01FC
3F0070
3F8070
3F8070
3BC070
39E070
39E070
38F070
387870
387870
383C70
381E70
381E70
380F70
3807F0
3807F0
3803F0
7F01F0
FF01F0
FF00F0
ENDCHAR
STARTCHAR nacute
ENCODING 324
SWIDTH 604 0
DWIDTH 19 0
BBX 18 23 1 0
BITMAP
007800
007000
007000
00E000
000000
000000
000000
F8F800
FBFE00
FFFE00
3E1E00
3C0E00
3C0F00
3C0F00
3C0F00
3C0F00
3C0F00
3C0F00
3C0F00
3C0F00
FF3F80
FF3FC0
FF3FC0
ENDCHAR
STARTCHAR Ncommaaccent
ENCODING 325
SWIDTH 743 0
DWIDTH 24 0
BBX 22 31 1 -9
BITMAP
7C01FC
FE01FC
FE01FC
3F0070
3F8070
3F8070
3BC070
39E070
39E070
38F070
387870
387870
383C70
381E70
381E70
380F70
3807F0
3807F0
3803F0
7F01F0
FF01F0
FF00F0
000000
000000
003000
007800
003800
003800
003000
003000
002000
ENDCHAR
STARTCHAR ncommaaccent
ENCODING 326
SWIDTH 604 0
DWIDTH 19 0
BBX 18 25 1 -9
BITMAP
F8F800
FBFE00
FFFE00
3E1E00
3C0E00
3C0F00
3C0F00
3C0F00
3C0F00
3C0F00
3C0F00
3C0F00
3C0F00
FF3F80
FF3FC0
FF3FC0
000000
000000
00C000
01E000
01E000
00C000
00C000
018000
010000
ENDCHAR
STARTCHAR Ncaron
ENCODING 327
SWIDTH 743 0
DWIDTH 24 0
BBX 22 28 1 0
BITMAP
038300
01CE00
00EC00
007C00
003800
000000
7C01FC
FE01FC
FE01FC
3F0070
3F8070
3F8070
3BC070
39E070
39E070
38F070
387870
387870
383C70
381E70
381E70
380F70
3807F0
3807F0
3803F0
7F01F0
FF01F0
FF00F0
ENDCHAR
STARTCHAR ncaron
ENCODING 328
SWIDTH 604 0
DWIDTH 19 0
BBX 18 24 1 0
BITMAP
0E1C00
073800
03B800
03F000
01E000
000000
000000
000000
F8F800
FBFE00
FFFE00
3E1E00
3C0E00
3C0F00
3C0F00
3C0F00
3C0F00
3C0F00
3C0F00
3C0F00
3C0F00
FF3F80
FF3FC0
FF3FC0
ENDCHAR
STARTCHAR napostrophe
ENCODING 329
SWIDTH 604 0
DWIDTH 19 0
BBX 18 25 1 0
BITMAP
700000
F00000
F00000
700000
600000
400000
C00000
800000
000000
F8F800
FBFE00
FFFE00
3E1E00
3C0E00
3C0F00
3C0F00
3C0F00
3C0F00
3C0F00
3C0F00
3C0F00
3C0F00
FF3F80
FF3FC0
FF3FC0
ENDCHAR
STARTCHAR Eng
ENCODING 330
SWIDTH 743 0
DWIDTH 24 0
BBX 22 30 1 -8
BITMAP
7C01FC
FE01FC
FE01FC
3F0070
3F8070
3F8070
3BC070
39E070
39E070
38F070
387870
387870
383C70
381E70
381E70
380F70
3807F0
3807F0
3803F0
7F01F0
FF01F0
FF00F0
0000F0
0000F0
0000F0
0000E0
0011E0
003FE0
003FC0
000E00
ENDCHAR
STARTCHAR eng
ENCODING 331
SWIDTH 604 0
DWIDTH 19 0
BBX 16 23 1 -7
BITMAP
F8F8
FBFE
FFFE
3E1E
3C0E
3C0F
3C0F
3C0F
3C0F
3C0F
3C0F
3C0F
3C0F
FF0F
FF0F
FF0F
000F
000E
001E
021E
03FE
03FC
01F0
ENDCHAR
STARTCHAR Omacron
ENCODING 332
SWIDTH 692 0
DWIDTH 22 0
BBX 20 27 1 0
BITMAP
07FE00
07FE00
07FE00
000000
000000
01FC00
07FF00
1FFF80
1E07C0
3C03E0
7801E0
7801E0
7001F0
7000F0
F000F0
F000F0
F000F0
F000F0
F000F0
7801E0
7801E0
7801E0
7C03C0
3E07C0
1FFF80
0FFF00
07FC00
ENDCHAR
STARTCHAR omacron
ENCODING 333
SWIDTH 532 0
DWIDTH 17 0
BBX 15 22 1 0
BITMAP
1FF0
1FF0
0000
0000
0000
0000
0FE0
1FF8
3EFC
783C
701C
F01E
F01E
F01E
F01E
F01E
F01E
F01C
783C
7C78
3FF0
1FE0
ENDCHAR
STARTCHAR Obreve
ENCODING 334
SWIDTH 692 0
DWIDTH 22 0
BBX 20 28 1 0
BITMAP
070700
070700
03FE00
01FC00
000000
000000
01FC00
07FF00
1FFF80
1E07C0
3C03E0
7801E0
7801E0
7001F0
7000F0
F000F0
F000F0
F000F0
F000F0
F000F0
7801E0
7801E0
7801E0
7C03C0
3E07C0
1FFF80
0FFF00
07FC00
ENDCHAR
STARTCHAR obreve
ENCODING 335
SWIDTH 532 0
DWIDTH 17 0
BBX 15 23 1 0
BITMAP
3838
3838
1FF0
0FE0
0000
0000
0000
0FE0
1FF8
3EFC
783C
701C
F01E
F01E
F01E
F01E
F01E
F01E
F01C
783C
7C78
3FF0
1FE0
ENDCHAR
STARTCHAR Ohungarumlaut
ENCODING 336
SWIDTH 692 0
DWIDTH 22 0
BBX 20 27 1 0
BITMAP
007700
00EE00
00CC00
018800
000000
01FC00
07FF00
1FFF80
1E07C0
3C03E0
7801E0
7801E0
7001F0
7000F0
F000F0
F000F0
F000F0
F000F0
F000F0
7801E0
7801E0
7801E0
7C03C0
3E07C0
1FFF80
0FFF00
07FC00
ENDCHAR
STARTCHAR ohungarumlaut
ENCODING 337
SWIDTH 532 0
DWIDTH 17 0
BBX 15 23 1 0
BITMAP
03B8
0730
0770
0E60
0000
0000
0000
0FE0
1FF8
3EFC
783C
701C
F01E
F01E
F01E
F01E
F01E
F01E
F01C
783C
7C78
3FF0
1FE0
ENDCHAR
STARTCHAR OE
ENCODING 338
SWIDTH 976 0
DWIDTH 31 0
BBX 29 22 2 0
BITMAP
03FDFFF0
0FFFFFF0
1FFFFFF0
3C0FE070
7807E070
7003E020
F003E000
F001E000
F001E1C0
E001E1C0
E001FFC0
E001FFC0
F001E1C0
F001E1C0
F001E000
F003E000
F803E000
7807E038
7C0FE038
3FFFFFF8
1FFFFFF8
0FF9FFF8
ENDCHAR
STARTCHAR oe
ENCODING 339
SWIDTH 830 0
DWIDTH 27 0
BBX 25 16 1 0
BITMAP
0FE1F800
1FF3FE00
3EFFFE00
783F0F00
701E0700
F01E0700
F01E0780
F01FFF80
F01FFF80
F01E0000
F01E0000
F01E0000
783F0000
7C7FC700
3FF7FF00
1FE1FE00
ENDCHAR
STARTCHAR Racute
ENCODING 340
SWIDTH 616 0
DWIDTH 20 0
BBX 18 27 1 0
BITMAP
01E000
01C000
038000
030000
000000
7FE000
FFFC00
FFFE00
3C1E00
3C0F00
3C0F00
3C0F00
3C0F00
3C0E00
3C1E00
3FFC00
3FF800
3FF000
3C7800
3C7800
3C3C00
3C3C00
3C1E00
3C1E00
7F0FC0
FF8FC0
FF87C0
ENDCHAR
STARTCHAR racute
ENCODING 341
SWIDTH 451 0
DWIDTH 14 0
BBX 12 23 1 0
BITMAP
03C0
0380
0380
0700
0000
0000
0000
F9F0
FBF0
FBF0
3E70
3C70
3C00
3C00
3C00
3C00
3C00
3C00
3C00
3C00
FF80
FFC0
FFC0
ENDCHAR
STARTCHAR Rcommaaccent
ENCODING 342
SWIDTH 616 0
DWIDTH 20 0
BBX 18 31 1 -9
BITMAP
7FE000
FFFC00
FFFE00
3C1E00
3C0F00
3C0F00
3C0F00
3C0F00
3C0E00
3C1E00
3FFC00
3FF800
3FF000
3C7800
3C7800
3C3C00
3C3C00
3C1E00
3C1E00
7F0FC0
FF8FC0
FF87C0
000000
000000
00C000
01E000
01E000
00C000
00C000
008000
018000
ENDCHAR
STARTCHAR rcommaaccent
ENCODING 343
SWIDTH 451 0
DWIDTH 14 0
BBX 12 25 1 -9
BITMAP
F9F0
FBF0
FBF0
3E70
3C70
3C00
3C00
3C00
3C00
3C00
3C00
3C00
3C00
FF80
FFC0
FFC0
0000
0000
1800
3C00
3C00
1800
1800
3000
2000
ENDCHAR
STARTCHAR Rcaron
ENCODING 344
SWIDTH 616 0
DWIDTH 20 0
BBX 18 28 1 0
BITMAP
183000
1C7000
0EE000
07C000
038000
000000
7FE000
FFFC00
FFFE00
3C1E00
3C0F00
3C0F00
3C0F00
3C0F00
3C0E00
3C1E00
3FFC00
3FF800
3FF000
3C7800
3C7800
3C3C00
3C3C00
3C1E00
3C1E00
7F0FC0
FF8FC0
FF87C0
ENDCHAR
STARTCHAR rcaron
ENCODING 345
SWIDTH 451 0
DWIDTH 14 0
BBX 12 24 1 0
BITMAP
3060
38E0
1DC0
0F80
0F80
0000
0000
0000
F9F0
FBF0
FBF0
3E70
3C70
3C00
3C00
3C00
3C00
3C00
3C00
3C00
3C00
FF80
FFC0
FFC0
ENDCHAR
STARTCHAR Sacute
ENCODING 346
SWIDTH 517 0
DWIDTH 17 0
BBX 13 27 2 0
BITMAP
01C0
0380
0380
0300
0000
1FF0
3FF0
7FF0
F030
E030
E070
E000
F000
FC00
7F00
3FC0
0FF0
03F0
00F8
0078
C038
C038
C038
C078
F9F0
FFE0
FFC0
ENDCHAR
STARTCHAR sacute
ENCODING 347
SWIDTH 431 0
DWIDTH 14 0
BBX 12 23 1 0
BITMAP
03C0
0380
0700
0700
0000
0000
0000
1FE0
3FE0
78E0
F0E0
F0E0
F000
7E00
7FC0
3FE0
07E0
00F0
60F0
E0F0
E0E0
FFE0
FF80
ENDCHAR
STARTCHAR Scircumflex
ENCODING 348
SWIDTH 517 0
DWIDTH 17 0
BBX 13 28 2 0
BITMAP
0700
0F80
1DC0
18E0
3070
0000
1FF0
3FF0
7FF0
F030
E030
E070
E000
F000
FC00
7F00
3FC0
0FF0
03F0
00F8
0078
C038
C038
C038
C078
F9F0
FFE0
FFC0
ENDCHAR
STARTCHAR scircumflex
ENCODING 349
SWIDTH 431 0
DWIDTH 14 0
BBX 12 24 1 0
BITMAP
0F00
1F00
1F80
39C0
39C0
4020
0000
0000
1FE0
3FE0
78E0
F0E0
F0E0
F000
7E00
7FC0
3FE0
07E0
00F0
60F0
E0F0
E0E0
FFE0
FF80
ENDCHAR
STARTCHAR Scedilla
ENCODING 350
SWIDTH 517 0
DWIDTH 17 0
BBX 13 29 2 -7
BITMAP
1FF0
3FF0
7FF0
F030
E030
E070
F000
F000
FC00
7F00
3FC0
1FF0
03F0
00F8
0078
C038
C038
C038
C078
F9F0
FFE0
FFC0
0600
0600
0F00
0700
0700
0600
0C00
ENDCHAR
STARTCHAR scedilla
ENCODING 351
SWIDTH 431 0
DWIDTH 14 0
BBX 12 23 1 -7
BITMAP
1FE0
3FE0
78E0
F0E0
F0E0
F000
7E00
7FC0
3FE0
07E0
00F0
60F0
E0F0
E0E0
FFE0
FF80
0400
0E00
0F00
0700
0600
0E00
0800
ENDCHAR
STARTCHAR Scaron
ENCODING 352
SWIDTH 517 0
DWIDTH 17 0
BBX 13 28 2 0
BITMAP
3060
1CE0
1DC0
0F80
0700
0000
1FF0
3FF0
7FF0
F030
E030
E070
E000
F000
FC00
7F00
3FC0
0FF0
03F0
00F8
0078
C038
C038
C038
C078
F9F0
FFE0
FFC0
ENDCHAR
STARTCHAR scaron
ENCODING 353
SWIDTH 431 0
DWIDTH 14 0
BBX 12 24 1 0
BITMAP
70E0
39C0
1DC0
1F80
0F00
0000
0000
0000
1FE0
3FE0
78E0
F0E0
F0E0
F000
7E00
7FC0
3FE0
07E0
00F0
60F0
E0F0
E0E0
FFE0
FF80
ENDCHAR
STARTCHAR uni0162
ENCODING 354
SWIDTH 593 0
DWIDTH 19 0
BBX 17 29 1 -7
BITMAP
FFFF80
FFFF80
FFFF80
C1C180
C1C380
E1C180
01C000
01C000
01C000
01C000
01C000
01C000
01C000
01C000
01C000
01C000
01C000
01C000
01C000
0FF800
0FF800
0FF800
008000
018000
01C000
00E000
00C000
018000
030000
ENDCHAR
STARTCHAR uni0163
ENCODING 355
SWIDTH 369 0
DWIDTH 12 0
BBX 11 28 0 -7
BITMAP
1C00
1C00
1C00
1C00
1C00
7FC0
FFC0
7FC0
1C00
1C00
1C00
1C00
1C00
1C00
1C00
1C00
1C00
1E00
1E60
1FE0
0FE0
0300
0300
0780
0380
0380
0300
0600
ENDCHAR
STARTCHAR Tcaron
ENCODING 356
SWIDTH 593 0
DWIDTH 19 0
BBX 17 28 1 0
BITMAP
0C1800
0E3800
077000
03E000
01C000
000000
FFFF80
FFFF80
FFFF80
C1C180
C1C380
E1C180
01C000
01C000
01C000
01C000
01C000
01C000
01C000
01C000
01C000
01C000
01C000
01C000
01C000
0FF800
0FF800
0FF800
ENDCHAR
STARTCHAR tcaron
ENCODING 357
SWIDTH 369 0
DWIDTH 12 0
BBX 12 24 0 0
BITMAP
0070
0070
0060
1C60
1C60
1C60
1C40
1C00
7FC0
FFC0
7FC0
1C00
1C00
1C00
1C00
1C00
1C00
1C00
1C00
1C00
1E00
1E60
1FE0
0FE0
ENDCHAR
STARTCHAR Tbar
ENCODING 358
SWIDTH 593 0
DWIDTH 19 0
BBX 17 22 1 0
BITMAP
FFFF80
FFFF80
FFFF80
C1C180
C1C380
E1C180
01C000
01C000
01C000
01C000
01C000
1FFC00
1FFC00
01C000
01C000
01C000
01C000
01C000
01C000
0FF800
0FF800
0FF800
ENDCHAR
STARTCHAR tbar
ENCODING 359
SWIDTH 369 0
DWIDTH 12 0
BBX 11 21 0 0
BITMAP
1C00
1C00
1C00
1C00
1C00
7FC0
FFC0
7FC0
1C00
1C00
1C00
7FC0
7FC0
1C00
1C00
1C00
1C00
1E00
1E60
1FE0
0FE0
ENDCHAR
STARTCHAR Utilde
ENCODING 360
SWIDTH 713 0
DWIDTH 23 0
BBX 21 27 1 0
BITMAP
07E300
07FF00
063E00
000000
000000
FE03F8
FF03F8
FF03F8
3C00E0
3C00E0
3C00E0
3C00E0
3C00E0
3C00E0
3C00E0
3C00E0
3C00E0
3C00E0
3C00E0
3C00E0
3C00E0
3C01E0
3C01C0
1E03C0
1FFF80
0FFF00
07FE00
ENDCHAR
STARTCHAR utilde
ENCODING 361
SWIDTH 599 0
DWIDTH 19 0
BBX 17 23 1 0
BITMAP
0E0400
1FFC00
1FFC00
187800
000000
000000
000000
F87E00
F87E00
F87E00
380E00
380E00
380E00
380E00
380E00
380E00
380E00
380E00
381E00
3C1E00
3FFF80
1FFF80
0FC780
ENDCHAR
STARTCHAR Umacron
ENCODING 362
SWIDTH 713 0
DWIDTH 23 0
BBX 21 27 1 0
BITMAP
03FE00
03FE00
03FE00
000000
000000
FE03F8
FF03F8
FF03F8
3C00E0
3C00E0
3C00E0
3C00E0
3C00E0
3C00E0
3C00E0
3C00E0
3C00E0
3C00E0
3C00E0
3C00E0
3C00E0
3C01E0
3C01C0
1E03C0
1FFF80
0FFF00
07FE00
ENDCHAR
STARTCHAR umacron
ENCODING 363
SWIDTH 599 0
DWIDTH 19 0
BBX 17 22 1 0
BITMAP
0FF800
0FF800
000000
000000
000000
000000
F87E00
F87E00
F87E00
380E00
380E00
380E00
380E00
380E00
380E00
380E00
380E00
381E00
3C1E00
3FFF80
1FFF80
0FC780
ENDCHAR
STARTCHAR Ubreve
ENCODING 364
SWIDTH 713 0
DWIDTH 23 0
BBX 21 28 1 0
BITMAP
030300
038700
03FF00
01FE00
000000
000000
FE03F8
FF03F8
FF03F8
3C00E0
3C00E0
3C00E0
3C00E0
3C00E0
3C00E0
3C00E0
3C00E0
3C00E0
3C00E0
3C00E0
3C00E0
3C00E0
3C01E0
3C01C0
1E03C0
1FFF80
0FFF00
07FE00
ENDCHAR
STARTCHAR ubreve
ENCODING 365
SWIDTH 599 0
DWIDTH 19 0
BBX 17 23 1 0
BITMAP
1C1C00
1C1C00
0FF800
07F000
000000
000000
000000
F87E00
F87E00
F87E00
380E00
380E00
380E00
380E00
380E00
380E00
380E00
380E00
381E00
3C1E00
3FFF80
1FFF80
0FC780
ENDCHAR
STARTCHAR Uring
ENCODING 366
SWIDTH 713 0
DWIDTH 23 0
BBX 21 29 1 0
BITMAP
007800
00CC00
00CC00
00CC00
00FC00
007800
000000
FE03F8
FF03F8
FF03F8
3C00E0
3C00E0
3C00E0
3C00E0
3C00E0
3C00E0
3C00E0
3C00E0
3C00E0
3C00E0
3C00E0
3C00E0
3C00E0
3C01E0
3C01C0
1E03C0
1FFF80
0FFF00
07FE00
ENDCHAR
STARTCHAR uring
ENCODING 367
SWIDTH 599 0
DWIDTH 19 0
BBX 17 25 1 0
BITMAP
008000
03E000
066000
063000
062000
03E000
01C000
000000
000000
F87E00
F87E00
F87E00
380E00
380E00
380E00
380E00
380E00
380E00
380E00
380E00
381E00
3C1E00
3FFF80
1FFF80
0FC780
ENDCHAR
STARTCHAR Uhungarumlaut
ENCODING 368
SWIDTH 713 0
DWIDTH 23 0
BBX 21 27 1 0
BITMAP
007700
00E600
00CE00
008C00
000000
FE03F8
FF03F8
FF03F8
3C00E0
3C00E0
3C00E0
3C00E0
3C00E0
3C00E0
3C00E0
3C00E0
3C00E0
3C00E0
3C00E0
3C00E0
3C00E0
3C01E0
3C01C0
1E03C0
1FFF80
0FFF00
07FE00
ENDCHAR
STARTCHAR uhungarumlaut
ENCODING 369
SWIDTH 599 0
DWIDTH 19 0
BBX 17 23 1 0
BITMAP
03DC00
03B800
073000
077000
000000
000000
000000
F87E00
F87E00
F87E00
380E00
380E00
380E00
380E00
380E00
380E00
380E00
380E00
381E00
3C1E00
3FFF80
1FFF80
0FC780
ENDCHAR
STARTCHAR Uogonek
ENCODING 370
SWIDTH 713 0
DWIDTH 23 0
BBX 21 29 1 -7
BITMAP
FE03F8
FF03F8
FF03F8
3C00E0
3C00E0
3C00E0
3C00E0
3C00E0
3C00E0
3C00E0
3C00E0
3C00E0
3C00E0
3C00E0
3C00E0
3C00E0
3C01E0
3C01C0
1E03C0
1FFF80
0FFF00
07FE00
000C00
001800
003000
003000
003000
003E00
003E00
ENDCHAR
STARTCHAR uogonek
ENCODING 371
SWIDTH 599 0
DWIDTH 19 0
BBX 17 23 1 -7
BITMAP
F87E00
F87E00
F87E00
380E00
380E00
380E00
380E00
380E00
380E00
380E00
380E00
381E00
3C1E00
3FFF80
1FFF80
0FC780
000300
000600
000C00
001C00
001C00
001F80
000F80
ENDCHAR
STARTCHAR Wcircumflex
ENCODING 372
SWIDTH 997 0
DWIDTH 32 0
BBX 32 28 0 0
BITMAP
0001C000
0003E000
00077000
000E7000
000C1800
00000000
FF81C0FF
FF83E0FF
FF83E0FF
3E03E038
1E07E038
1E07F038
1E07F038
1E06F070
0F0E7070
0F0E7870
0F0E7870
0F1C38E0
079C38E0
079C3CE0
079C3CE0
07B81DC0
03F81FC0
03F81FC0
03F00F80
03F00F80
01F00F80
01F00F80
ENDCHAR
STARTCHAR wcircumflex
ENCODING 373
SWIDTH 781 0
DWIDTH 25 0
BBX 24 24 0 0
BITMAP
000E00
001F00
003F80
003B80
0071C0
000000
000000
000000
F81E1F
FC1E1F
FC1F1F
3C1F07
1C3F06
1E3F8E
1E338E
1E738E
0E739C
0F63DC
0F61DC
07E1D8
07E1F8
07C1F8
07C0F0
03C0F0
ENDCHAR
STARTCHAR Ycircumflex
ENCODING 374
SWIDTH 664 0
DWIDTH 21 0
BBX 21 28 0 0
BITMAP
003800
007C00
00EE00
01CE00
018300
000000
7F87F8
FF87F8
FF87F8
1E01C0
1F01C0
0F0380
078380
078700
03C600
03EE00
01FC00
00FC00
00F800
007800
007800
007800
007800
007800
007800
007C00
01FE00
01FE00
ENDCHAR
STARTCHAR ycircumflex
ENCODING 375
SWIDTH 519 0
DWIDTH 17 0
BBX 16 32 0 -8
BITMAP
01C0
03E0
07E0
0770
0E38
0000
0000
0000
F83F
FC3F
FC3E
3C0E
1E0E
1E1C
1E1C
0E1C
0F38
0F38
0730
07F0
03F0
03E0
03E0
01C0
01C0
03C0
0380
0380
8700
FF00
FE00
3800
ENDCHAR
STARTCHAR Ydieresis
ENCODING 376
SWIDTH 664 0
DWIDTH 21 0
BBX 21 28 0 0
BITMAP
010200
03CF00
03CF00
03C700
000000
000000
7F87F8
FF87F8
FF87F8
1E01C0
1F01C0
0F0380
078380
078700
03C600
03EE00
01FC00
00FC00
00F800
007800
007800
007800
007800
007800
007800
007C00
01FE00
01FE00
ENDCHAR
STARTCHAR Zacute
ENCODING 377
SWIDTH 588 0
DWIDTH 19 0
BBX 17 29 1 -2
BITMAP
007000
00E000
00E000
01C000
000000
7FFF00
7FFF80
7FFF80
600F00
601E00
603E00
007C00
007800
00F000
01F000
01E000
03C000
078000
0F8000
0F0000
1E0000
3E0000
7C0380
780380
F00380
FFFF80
FFFF80
000380
000380
ENDCHAR
STARTCHAR zacute
ENCODING 378
SWIDTH 452 0
DWIDTH 14 0
BBX 13 23 1 0
BITMAP
03C0
0380
0380
0700
0000
0000
0000
7FF0
FFF0
FFF0
E0F0
61E0
03C0
07C0
0780
0F00
1E00
3C00
7C38
7838
F038
FFF0
FFF0
ENDCHAR
STARTCHAR Zdotaccent
ENCODING 379
SWIDTH 588 0
DWIDTH 19 0
BBX 17 30 1 -2
BITMAP
01C000
03C000
03E000
03C000
018000
000000
7FFF00
7FFF80
7FFF80
600F00
601E00
603E00
007C00
007800
00F000
01F000
01E000
03C000
078000
0F8000
0F0000
1E0000
3E0000
7C0380
780380
F00380
FFFF80
FFFF80
000380
000380
ENDCHAR
STARTCHAR zdotaccent
ENCODING 380
SWIDTH 452 0
DWIDTH 14 0
BBX 13 23 1 0
BITMAP
0600
0F00
0F00
0F00
0600
0000
0000
7FF0
FFF0
FFF0
E0F0
61E0
03C0
07C0
0780
0F00
1E00
3C00
7C38
7838
F038
FFF0
FFF0
ENDCHAR
STARTCHAR Zcaron
ENCODING 381
SWIDTH 588 0
DWIDTH 19 0
BBX 17 30 1 -2
BITMAP
0C1800
0E3000
077000
03E000
01C000
000000
7FFF00
7FFF80
7FFF80
600F00
601E00
603E00
007C00
007800
00F000
01F000
01E000
03C000
078000
0F8000
0F0000
1E0000
3E0000
7C0380
780380
F00380
FFFF80
FFFF80
000380
000380
ENDCHAR
STARTCHAR zcaron
ENCODING 382
SWIDTH 452 0
DWIDTH 14 0
BBX 13 24 1 0
BITMAP
3060
38E0
1DC0
0F80
0F80
0000
0000
0000
7FF0
FFF0
FFF0
E0F0
61E0
03C0
07C0
0780
0F00
1E00
3C00
7C38
7838
F038
FFF0
FFF0
ENDCHAR
STARTCHAR longs
ENCODING 383
SWIDTH 358 0
DWIDTH 11 0
BBX 11 24 1 0
BITMAP
0FE0
1FE0
3E60
3C00
3C00
3C00
3C00
3C00
3C00
3C00
3C00
3C00
3C00
3C00
3C00
3C00
3C00
3C00
3C00
3C00
3C00
FF80
FFC0
FFC0
ENDCHAR
STARTCHAR florin
ENCODING 402
SWIDTH 500 0
DWIDTH 16 0
BBX 17 25 -2 -8
BITMAP
001F80
007F80
007F80
00F000
00F000
00F000
00E000
00E000
07FE00
07FE00
07FE00
01C000
01C000
03C000
03C000
03C000
03C000
038000
038000
078000
078000
8F0000
FF0000
FE0000
300000
ENDCHAR
STARTCHAR Aringacute
ENCODING 506
SWIDTH 696 0
DWIDTH 22 0
BBX 22 32 0 0
BITMAP
001C00
003C00
003800
007000
000000
007800
00FC00
00CC00
00CC00
00FC00
007800
00F800
00FC00
00DC00
01DC00
01DE00
01CE00
038E00
038F00
038F00
070780
070780
070780
0FFFC0
0FFFC0
0E03C0
1C01E0
1C01E0
1C01E0
FE03FC
FF07FC
FF07FC
ENDCHAR
STARTCHAR aringacute
ENCODING 507
SWIDTH 524 0
DWIDTH 17 0
BBX 15 28 1 0
BITMAP
01E0
01C0
0380
0300
0100
07C0
0CC0
0C40
0CC0
07C0
0380
0000
0FE0
3FF0
78F0
7078
7078
0078
0078
1FF8
7FF8
7838
F038
F038
F078
F8FC
7FBE
3F3E
ENDCHAR
STARTCHAR AEacute
ENCODING 508
SWIDTH 879 0
DWIDTH 28 0
BBX 27 27 0 0
BITMAP
00003800
00007000
00006000
0000C000
00000000
007FFFE0
007FFFE0
007FFFE0
001FC0E0
003BC0E0
003BC040
0073C000
0073C000
00E3C380
01C3C380
01C3FF80
0383FF80
0383C380
07FFC380
07FFC000
0E03C000
0E03C000
1C03C060
1C03C060
FE0FFFE0
FF0FFFE0
FF0FFFE0
ENDCHAR
STARTCHAR aeacute
ENCODING 509
SWIDTH 778 0
DWIDTH 25 0
BBX 23 23 1 0
BITMAP
000E00
001E00
001C00
001800
002000
000000
000000
1FC3F0
3FEFF8
7CFFFC
707C1C
70781E
00781E
07FFFE
3FFFFE
7FF800
F07800
F03800
F03800
F03C00
F8FF1C
7FFFFC
3F87F8
ENDCHAR
STARTCHAR Oslashacute
ENCODING 510
SWIDTH 692 0
DWIDTH 22 0
BBX 20 30 1 -3
BITMAP
003C00
007000
007000
006700
000600
01FE00
07FF00
1FFF80
1E0FC0
3C1BE0
7819E0
7839E0
7031F0
7030F0
F070F0
F060F0
F060F0
F0E0F0
F0C0F0
78C1E0
7981E0
7981E0
7F83C0
3F07C0
1FFF80
0FFF00
07FC00
060000
0C0000
0C0000
ENDCHAR
STARTCHAR oslashacute
ENCODING 511
SWIDTH 532 0
DWIDTH 17 0
BBX 15 26 1 -3
BITMAP
01E0
01C0
01C0
0380
0018
0018
0030
0FF0
1FF8
3EFC
78FC
70DC
F0DE
F19E
F19E
F31E
F31E
F61E
F61C
7C3C
7C78
3FF0
1FE0
1800
3000
3000
ENDCHAR
STARTCHAR Scommaaccent
ENCODING 536
SWIDTH 517 0
DWIDTH 17 0
BBX 13 31 2 -9
BITMAP
1FF0
3FF0
7FF0
F030
E030
E070
E000
F000
FC00
7F00
3FC0
0FF0
03F0
00F8
0078
C038
C038
C038
C078
F9F0
FFE0
FFC0
0000
0000
0600
0F00
0F00
0700
0600
0400
0C00
ENDCHAR
STARTCHAR scommaaccent
ENCODING 537
SWIDTH 431 0
DWIDTH 14 0
BBX 12 25 1 -9
BITMAP
1FE0
3FE0
78E0
F0E0
F0E0
F000
7E00
7FC0
3FE0
07E0
00F0
60F0
E0F0
E0E0
FFE0
FF80
0000
0000
0600
0F00
0F00
0600
0600
0C00
0800
ENDCHAR
STARTCHAR uni021A
ENCODING 538
SWIDTH 593 0
DWIDTH 19 0
BBX 17 31 1 -9
BITMAP
FFFF80
FFFF80
FFFF80
C1C180
C1C380
E1C180
01C000
01C000
01C000
01C000
01C000
01C000
01C000
01C000
01C000
01C000
01C000
01C000
01C000
0FF800
0FF800
0FF800
000000
000000
008000
01C000
01C000
01C000
018000
018000
010000
ENDCHAR
STARTCHAR uni021B
ENCODING 539
SWIDTH 369 0
DWIDTH 12 0
BBX 11 30 0 -9
BITMAP
1C00
1C00
1C00
1C00
1C00
7FC0
FFC0
7FC0
1C00
1C00
1C00
1C00
1C00
1C00
1C00
1C00
1C00
1E00
1E60
1FE0
0FE0
0000
0000
0600
0F00
0F00
0600
0600
0400
0C00
ENDCHAR
STARTCHAR dotlessj
ENCODING 567
SWIDTH 289 0
DWIDTH 9 0
BBX 10 24 -3 -8
BITMAP
0F80
0FC0
0FC0
03C0
03C0
03C0
03C0
03C0
03C0
03C0
03C0
03C0
03C0
03C0
03C0
03C0
03C0
03C0
03C0
0380
4F80
FF80
FF00
3800
ENDCHAR
STARTCHAR apostrophe
ENCODING 700
SWIDTH 500 0
DWIDTH 16 0
BBX 4 8 6 16
BITMAP
70
F0
F0
70
60
40
C0
80
ENDCHAR
STARTCHAR circumflex
ENCODING 710
SWIDTH 500 0
DWIDTH 16 0
BBX 10 5 3 19
BITMAP
1E00
1F00
3F00
7380
F3C0
ENDCHAR
STARTCHAR caron
ENCODING 711
SWIDTH 500 0
DWIDTH 16 0
BBX 10 5 3 19
BITMAP
E1C0
7380
3B80
3F00
1E00
ENDCHAR
STARTCHAR uni02C9
ENCODING 713
SWIDTH 500 0
DWIDTH 16 0
BBX 10 2 3 20
BITMAP
FFC0
FFC0
ENDCHAR
STARTCHAR breve
ENCODING 728
SWIDTH 500 0
DWIDTH 16 0
BBX 10 4 3 19
BITMAP
C0C0
E1C0
FFC0
7F00
ENDCHAR
STARTCHAR dotaccent
ENCODING 729
SWIDTH 500 0
DWIDTH 16 0
BBX 4 5 6 18
BITMAP
60
F0
F0
F0
E0
ENDCHAR
STARTCHAR ring
ENCODING 730
SWIDTH 500 0
DWIDTH 16 0
BBX 6 7 5 18
BITMAP
10
78
CC
CC
CC
FC
78
ENDCHAR
STARTCHAR ogonek
ENCODING 731
SWIDTH 500 0
DWIDTH 16 0
BBX 5 7 5 -7
BITMAP
38
60
E0
C0
C0
F8
F8
ENDCHAR
STARTCHAR tilde
ENCODING 732
SWIDTH 500 0
DWIDTH 16 0
BBX 10 4 3 19
BITMAP
7040
FFC0
FFC0
8380
ENDCHAR
STARTCHAR hungarumlaut
ENCODING 733
SWIDTH 500 0
DWIDTH 16 0
BBX 9 4 3 19
BITMAP
7780
6700
E600
CE00
ENDCHAR
STARTCHAR uni0394
ENCODING 916
SWIDTH 713 0
DWIDTH 23 0
BBX 20 22 1 0
BITMAP
00F000
00F800
01F800
01FC00
01DC00
039C00
039E00
078E00
070E00
070F00
0F0700
0E0780
0E0780
1E0380
1C03C0
3C01C0
3801E0
3801E0
7800E0
7FFFF0
7FFFF0
FFFFF0
ENDCHAR
STARTCHAR uni03A9
ENCODING 937
SWIDTH 782 0
DWIDTH 25 0
BBX 21 22 2 0
BITMAP
01FE00
07FF00
0FFFC0
1E03C0
3C01E0
3801E0
7800F0
7800F0
7800F0
7800F0
7000F0
7000F0
7800F0
7800F0
7800E0
3800E0
3C01E0
1C01C0
0E0380
7F8FF8
FF8FF8
FF8FF8
ENDCHAR
STARTCHAR uni03BC
ENCODING 956
SWIDTH 599 0
DWIDTH 19 0
BBX 15 22 3 -6
BITMAP
E038
E038
E038
E038
E038
E038
E038
E038
E038
E038
E038
E078
F078
F9FE
FFFE
FF1E
E000
E000
E000
E000
E000
E000
ENDCHAR
STARTCHAR pi
ENCODING 960
SWIDTH 640 0
DWIDTH 20 0
BBX 18 16 1 0
BITMAP
7FFFC0
FFFFC0
7FFFC0
1E0F00
1E0F00
1E0F00
1E0F00
1E0F00
1E0F00
1E0F00
1E0F00
1E0F00
1E0F00
1E0F00
1E0F00
1E0F00
ENDCHAR
STARTCHAR Wgrave
ENCODING 7808
SWIDTH 997 0
DWIDTH 32 0
BBX 32 27 0 0
BITMAP
00078000
00038000
0001C000
0000C000
00000000
FF81C0FF
FF83E0FF
FF83E0FF
3E03E038
1E07E038
1E07F038
1E07F038
1E06F070
0F0E7070
0F0E7870
0F0E7870
0F1C38E0
079C38E0
079C3CE0
079C3CE0
07B81DC0
03F81FC0
03F81FC0
03F00F80
03F00F80
01F00F80
01F00F80
ENDCHAR
STARTCHAR wgrave
ENCODING 7809
SWIDTH 781 0
DWIDTH 25 0
BBX 24 23 0 0
BITMAP
003C00
001C00
001C00
000E00
000000
000000
000000
F81E1F
FC1E1F
FC1F1F
3C1F07
1C3F06
1E3F8E
1E338E
1E738E
0E739C
0F63DC
0F61DC
07E1D8
07E1F8
07C1F8
07C0F0
03C0F0
ENDCHAR
STARTCHAR Wacute
ENCODING 7810
SWIDTH 997 0
DWIDTH 32 0
BBX 32 27 0 0
BITMAP
0000F000
0000E000
0000C000
00018000
00000000
FF81C0FF
FF83E0FF
FF83E0FF
3E03E038
1E07E038
1E07F038
1E07F038
1E06F070
0F0E7070
0F0E7870
0F0E7870
0F1C38E0
079C38E0
079C3CE0
079C3CE0
07B81DC0
03F81FC0
03F81FC0
03F00F80
03F00F80
01F00F80
01F00F80
ENDCHAR
STARTCHAR wacute
ENCODING 7811
SWIDTH 781 0
DWIDTH 25 0
BBX 24 23 0 0
BITMAP
000780
000700
000700
000E00
000000
000000
000000
F81E1F
FC1E1F
FC1F1F
3C1F07
1C3F06
1E3F8E
1E338E
1E738E
0E739C
0F63DC
0F61DC
07E1D8
07E1F8
07C1F8
07C0F0
03C0F0
ENDCHAR
STARTCHAR Wdieresis
ENCODING 7812
SWIDTH 997 0
DWIDTH 32 0
BBX 32 28 0 0
BITMAP
00081000
001E3800
001E7800
001E3800
00000000
00000000
FF81C0FF
FF83E0FF
FF83E0FF
3E03E038
1E07E038
1E07F038
1E07F038
1E06F070
0F0E7070
0F0E7870
0F0E7870
0F1C38E0
079C38E0
079C3CE0
079C3CE0
07B81DC0
03F81FC0
03F81FC0
03F00F80
03F00F80
01F00F80
01F00F80
ENDCHAR
STARTCHAR wdieresis
ENCODING 7813
SWIDTH 781 0
DWIDTH 25 0
BBX 24 23 0 0
BITMAP
0071C0
00F1E0
00F1E0
0071C0
000000
000000
000000
F81E1F
FC1E1F
FC1F1F
3C1F07
1C3F06
1E3F8E
1E338E
1E738E
0E739C
0F63DC
0F61DC
07E1D8
07E1F8
07C1F8
07C0F0
03C0F0
ENDCHAR
STARTCHAR Ygrave
ENCODING 7922
SWIDTH 664 0
DWIDTH 21 0
BBX 21 27 0 0
BITMAP
01E000
007000
007000
003000
000000
7F87F8
FF87F8
FF87F8
1E01C0
1F01C0
0F0380
078380
078700
03C600
03EE00
01FC00
00FC00
00F800
007800
007800
007800
007800
007800
007800
007C00
01FE00
01FE00
ENDCHAR
STARTCHAR ygrave
ENCODING 7923
SWIDTH 519 0
DWIDTH 17 0
BBX 16 31 0 -8
BITMAP
0780
0380
01C0
01C0
0000
0000
0000
F83F
FC3F
FC3E
3C0E
1E0E
1E1C
1E1C
0E1C
0F38
0F38
0730
07F0
03F0
03E0
03E0
01C0
01C0
03C0
0380
0380
8700
FF00
FE00
3800
ENDCHAR
STARTCHAR thinspace
ENCODING 8201
SWIDTH 50 0
DWIDTH 2 0
BBX 1 1 0 0
BITMAP
00
ENDCHAR
STARTCHAR endash
ENCODING 8211
SWIDTH 500 0
DWIDTH 16 0
BBX 16 2 0 8
BITMAP
FFFF
FFFF
ENDCHAR
STARTCHAR emdash
ENCODING 8212
SWIDTH 999 0
DWIDTH 32 0
BBX 32 2 0 8
BITMAP
FFFFFFFF
FFFFFFFF
ENDCHAR
STARTCHAR quoteleft
ENCODING 8216
SWIDTH 254 0
DWIDTH 8 0
BBX 4 8 2 16
BITMAP
10
30
20
60
F0
F0
F0
60
ENDCHAR
STARTCHAR quoteright
ENCODING 8217
SWIDTH 254 0
DWIDTH 8 0
BBX 4 8 2 16
BITMAP
70
F0
F0
70
60
60
C0
40
ENDCHAR
STARTCHAR quotesinglbase
ENCODING 8218
SWIDTH 254 0
DWIDTH 8 0
BBX 4 8 2 -5
BITMAP
70
F0
F0
70
60
60
40
C0
ENDCHAR
STARTCHAR quotedblleft
ENCODING 8220
SWIDTH 404 0
DWIDTH 13 0
BBX 9 8 2 16
BITMAP
1180
3180
2300
6300
F700
F780
F780
6300
ENDCHAR
STARTCHAR quotedblright
ENCODING 8221
SWIDTH 404 0
DWIDTH 13 0
BBX 9 8 2 16
BITMAP
7380
F780
F780
7380
6300
6300
C600
4400
ENDCHAR
STARTCHAR quotedblbase
ENCODING 8222
SWIDTH 394 0
DWIDTH 13 0
BBX 9 8 2 -5
BITMAP
7300
F780
F780
7380
6300
6300
4600
C400
ENDCHAR
STARTCHAR dagger
ENCODING 8224
SWIDTH 491 0
DWIDTH 16 0
BBX 12 24 2 -2
BITMAP
0600
0600
0600
0600
0E00
0E00
FFF0
FFF0
7FC0
0E00
0E00
0E00
0E00
0E00
0E00
0E00
0E00
0600
0600
0600
0600
0600
0600
0600
ENDCHAR
STARTCHAR daggerdbl
ENCODING 8225
SWIDTH 491 0
DWIDTH 16 0
BBX 12 24 2 -2
BITMAP
0600
0600
0600
0600
0E00
0E00
FFF0
FFF0
7FC0
0E00
0E00
0600
0600
0E00
0E00
0E00
FFF0
FFF0
1F80
0E00
0E00
0600
0600
0600
ENDCHAR
STARTCHAR bullet
ENCODING 8226
SWIDTH 361 0
DWIDTH 12 0
BBX 6 6 3 8
BITMAP
78
FC
FC
FC
FC
78
ENDCHAR
STARTCHAR ellipsis
ENCODING 8230
SWIDTH 773 0
DWIDTH 25 0
BBX 21 5 2 -1
BITMAP
606060
F0F0F0
F0F0F8
F0F0F0
606060
ENDCHAR
STARTCHAR perthousand
ENCODING 8240
SWIDTH 1068 0
DWIDTH 34 0
BBX 32 22 1 -1
BITMAP
1E038000
3F830000
73870000
E1860000
E1CE0000
E1CE0000
E1DC0000
619C0000
73980000
3F380000
0C300000
0073E07C
0067F0FE
00EE39C6
00CE3987
01CE1987
018E1987
038E1987
030E39C7
070771EE
0603F0FC
0C008010
ENDCHAR
STARTCHAR guilsinglleft
ENCODING 8249
SWIDTH 327 0
DWIDTH 10 0
BBX 6 13 2 3
BITMAP
1C
1C
38
38
70
70
E0
F0
70
78
38
3C
1C
ENDCHAR
STARTCHAR guilsinglright
ENCODING 8250
SWIDTH 327 0
DWIDTH 10 0
BBX 6 13 2 3
BITMAP
E0
70
70
38
38
1C
1C
1C
38
38
70
70
E0
ENDCHAR
STARTCHAR fraction
ENCODING 8260
SWIDTH 123 0
DWIDTH 4 0
BBX 13 23 -4 -1
BITMAP
0038
0030
0070
0060
00E0
00C0
01C0
0180
0380
0300
0700
0600
0E00
0C00
1C00
1800
3800
3000
7000
6000
E000
C000
C000
ENDCHAR
STARTCHAR foursuperior
ENCODING 8308
SWIDTH 349 0
DWIDTH 11 0
BBX 10 12 1 12
BITMAP
0700
0F00
1F00
3700
3700
6700
C700
FF80
FFC0
0700
0700
0600
ENDCHAR
STARTCHAR Euro
ENCODING 8364
SWIDTH 527 0
DWIDTH 17 0
BBX 15 17 1 0
BITMAP
01F8
07FE
0F1E
1C0E
1C0E
3800
3800
FFF0
3800
FFE0
FFE0
3800
3C0E
1C0E
1E0E
0FFE
07FC
ENDCHAR
STARTCHAR trademark
ENCODING 8482
SWIDTH 844 0
DWIDTH 27 0
BBX 23 11 2 11
BITMAP
FFB80E
CCBC1C
CC9C1C
0C1C3C
0C162C
0C162C
0C126C
0C134C
0C13CC
0C118C
3E3D9E
ENDCHAR
STARTCHAR Omega
ENCODING 8486
SWIDTH 782 0
DWIDTH 25 0
BBX 21 22 2 0
BITMAP
01FE00
07FF00
0FFFC0
1E03C0
3C01E0
3801E0
7800F0
7800F0
7800F0
7800F0
7000F0
7000F0
7800F0
7800F0
7800E0
3800E0
3C01E0
1C01C0
0E0380
7F8FF8
FF8FF8
FF8FF8
ENDCHAR
STARTCHAR partialdiff
ENCODING 8706
SWIDTH 596 0
DWIDTH 19 0
BBX 15 22 2 0
BITMAP
0FE0
1FF0
3EF8
3038
003C
001C
001C
0FDE
3FFE
3E7E
783E
781E
F01E
F01E
F01E
F01E
F01C
781C
783C
3E78
3FF0
0FE0
ENDCHAR
STARTCHAR Delta
ENCODING 8710
SWIDTH 713 0
DWIDTH 23 0
BBX 20 22 1 0
BITMAP
00F000
00F800
01F800
01FC00
01DC00
039C00
039E00
078E00
070E00
070F00
0F0700
0E0780
0E0780
1E0380
1C03C0
3C01C0
3801E0
3801E0
7800E0
7FFFF0
7FFFF0
FFFFF0
ENDCHAR
STARTCHAR product
ENCODING 8719
SWIDTH 749 0
DWIDTH 24 0
BBX 22 26 1 -4
BITMAP
1FFFE0
3FFFE0
3FFFE0
3C00E0
3C00E0
3C00E0
3C00E0
3C00E0
3C00E0
3C00E0
3C00E0
3C00E0
3C00E0
3C00E0
3C00E0
3C00E0
3C00E0
3C00E0
3C00E0
3C00E0
3C00E0
3C00E0
3C00E0
3C00E0
FF03FC
FF03FC
ENDCHAR
STARTCHAR summation
ENCODING 8721
SWIDTH 587 0
DWIDTH 19 0
BBX 16 26 1 -4
BITMAP
7FFE
FFFE
FFFE
7800
3C00
1E00
1E00
0F00
0780
03C0
01E0
01F0
00F0
00F0
01E0
03C0
03C0
0780
0F00
1E00
3C00
3C00
7800
FFFE
FFFF
FFFF
ENDCHAR
STARTCHAR minus
ENCODING 8722
SWIDTH 530 0
DWIDTH 17 0
BBX 15 3 1 8
BITMAP
7FFC
FFFE
7FFC
ENDCHAR
STARTCHAR uni2215
ENCODING 8725
SWIDTH 434 0
DWIDTH 14 0
BBX 12 27 1 -3
BITMAP
0030
0020
0060
0060
00C0
00C0
00C0
0180
0180
0180
0300
0300
0200
0600
0600
0400
0C00
0C00
1800
1800
1800
3000
3000
2000
6000
6000
C000
ENDCHAR
STARTCHAR uni2219
ENCODING 8729
SWIDTH 253 0
DWIDTH 8 0
BBX 4 4 2 11
BITMAP
F0
F0
F0
F0
ENDCHAR
STARTCHAR radical
ENCODING 8730
SWIDTH 662 0
DWIDTH 21 0
BBX 20 25 1 0
BITMAP
000070
000070
0000E0
0000E0
0000E0
0001C0
0001C0
0001C0
040380
0C0380
3E0780
FE0700
EF0700
4F0E00
070E00
078E00
079C00
039C00
03DC00
01F800
01F800
01F800
00F000
00F000
00F000
ENDCHAR
STARTCHAR infinity
ENCODING 8734
SWIDTH 739 0
DWIDTH 24 0
BBX 21 10 1 6
BITMAP
1F03E0
7FCFF0
7BFE78
E0FC38
E07818
E07818
E0FC38
7BDF78
7F8FF0
1F03E0
ENDCHAR
STARTCHAR integral
ENCODING 8747
SWIDTH 390 0
DWIDTH 12 0
BBX 11 29 1 -7
BITMAP
0FE0
1FC0
1E40
1C00
1C00
1C00
1C00
1C00
1E00
1E00
1E00
1E00
1E00
0E00
0E00
0E00
0E00
0E00
0E00
0E00
0E00
0E00
0E00
0E00
0E00
0E00
FE00
FE00
7800
ENDCHAR
STARTCHAR approxequal
ENCODING 8776
SWIDTH 636 0
DWIDTH 20 0
BBX 16 11 2 4
BITMAP
3F03
7FFF
7FFF
E1FE
4008
0000
1C03
7FC3
7FFF
77FF
607E
ENDCHAR
STARTCHAR notequal
ENCODING 8800
SWIDTH 530 0
DWIDTH 17 0
BBX 15 14 1 1
BITMAP
0060
0040
00C0
FFFE
FFFE
0180
0300
0300
FFFE
FFFE
0400
0C00
0C00
0800
ENDCHAR
STARTCHAR lessequal
ENCODING 8804
SWIDTH 530 0
DWIDTH 17 0
BBX 13 17 2 0
BITMAP
0008
0038
01F8
07E0
1F00
FC00
E000
F000
7C00
1F80
07E0
00F8
0038
0008
0000
FFF8
FFF8
ENDCHAR
STARTCHAR greaterequal
ENCODING 8805
SWIDTH 530 0
DWIDTH 17 0
BBX 13 17 2 0
BITMAP
8000
E000
F800
3F00
0FC0
01F0
0078
0038
01F0
07C0
3F00
FC00
E000
8000
0000
FFF8
FFF8
ENDCHAR
STARTCHAR lozenge
ENCODING 9674
SWIDTH 596 0
DWIDTH 19 0
BBX 15 22 2 0
BITMAP
03C0
07C0
07E0
0EE0
1EF0
1C70
3C78
3838
781C
701C
F00E
F00E
701C
781C
3838
3C38
1C70
1E70
0EE0
0FE0
07C0
07C0
ENDCHAR
STARTCHAR commaaccent
ENCODING 63171
SWIDTH 500 0
DWIDTH 16 0
BBX 4 7 6 -9
BITMAP
60
F0
F0
60
60
40
C0
ENDCHAR
STARTCHAR ff
ENCODING 64256
SWIDTH 684 0
DWIDTH 22 0
BBX 21 24 1 0
BITMAP
0FC3F8
1FE7F8
1FE798
3C0700
3C0700
3C0700
3C0700
3C0700
FFFFF0
FFFFF0
FFFFF0
3C0700
3C0700
3C0700
3C0700
3C0700
3C0700
3C0700
3C0700
3C0700
3C0700
FF1FF0
FFBFF0
FFBFF0
ENDCHAR
STARTCHAR fi
ENCODING 64257
SWIDTH 612 0
DWIDTH 20 0
BBX 18 24 1 0
BITMAP
0FF000
1FF800
1F7800
3C0000
3C0000
3C0000
3C0000
3C0000
FFFF00
FFFF00
FFFF00
3C0F00
3C0F00
3C0F00
3C0F00
3C0F00
3C0F00
3C0F00
3C0F00
3C0F00
3C0F00
FF3FC0
FFBFC0
FFBFC0
ENDCHAR
STARTCHAR fl
ENCODING 64258
SWIDTH 622 0
DWIDTH 20 0
BBX 19 24 1 0
BITMAP
0FF300
1FFF00
1F7F00
3C0F00
3C0F00
3C0F00
3C0F00
3C0F00
FFCF00
FFCF00
FFCF00
3C0F00
3C0F00
3C0F00
3C0F00
3C0F00
3C0F00
3C0F00
3C0F00
3C0F00
3C0F00
FF3FC0
FFBFE0
FFBFE0
ENDCHAR
STARTCHAR ffi
ENCODING 64259
SWIDTH 938 0
DWIDTH 30 0
BBX 29 24 1 0
BITMAP
0FC1FE00
1FE3FF00
1FE7CE00
3C078000
3C070000
3C070000
3C070000
3C070000
FFFFFFC0
FFFFFFC0
FFFFFFC0
3C0701C0
3C0701C0
3C0701C0
3C0701C0
3C0701C0
3C0701C0
3C0701C0
3C0701C0
3C0701C0
3C0701C0
FF1FE7F0
FFBFEFF8
FFBFEFF8
ENDCHAR
STARTCHAR ffl
ENCODING 64260
SWIDTH 950 0
DWIDTH 30 0
BBX 29 24 1 0
BITMAP
0FC1FE60
1FE3FFE0
1FE7CFE0
3C0781E0
3C0701E0
3C0701E0
3C0701E0
3C0701E0
FFFFF1E0
FFFFF9E0
FFFFF1E0
3C0701E0
3C0701E0
3C0701E0
3C0701E0
3C0701E0
3C0701E0
3C0701E0
3C0701E0
3C0701E0
3C0701E0
FF1FE7F8
FFBFEFF8
FFBFEFF8
ENDCHAR
STARTCHAR .notdef
ENCODING -1
SWIDTH 500 0
DWIDTH 16 0
BBX 1 1 0 0
BITMAP
00
ENDCHAR
STARTCHAR nonmarkingreturn
ENCODING -1
SWIDTH 333 0
DWIDTH 11 0
BBX 1 1 0 0
BITMAP
00
ENDCHAR
ENDFONT
